G04 #@! TF.FileFunction,Copper,L2,Bot,Signal*
%FSLAX46Y46*%
G04 Gerber Fmt 4.6, Leading zero omitted, Abs format (unit mm)*
G04 Created by KiCad (PCBNEW 4.0.5+dfsg1-4) date Sat Mar 27 15:25:59 2021*
%MOMM*%
%LPD*%
G01*
G04 APERTURE LIST*
%ADD10C,0.100000*%
%ADD11C,1.600000*%
%ADD12R,1.600000X1.600000*%
%ADD13R,2.200000X2.200000*%
%ADD14O,2.200000X2.200000*%
%ADD15R,1.800000X1.800000*%
%ADD16C,1.800000*%
%ADD17C,3.000000*%
%ADD18R,3.000000X3.000000*%
%ADD19R,1.700000X1.700000*%
%ADD20O,1.700000X1.700000*%
%ADD21C,2.800000*%
%ADD22O,2.000000X3.000000*%
%ADD23R,3.000000X2.000000*%
%ADD24O,3.000000X2.000000*%
%ADD25C,2.400000*%
%ADD26O,2.400000X2.400000*%
%ADD27R,1.600000X2.400000*%
%ADD28O,1.600000X2.400000*%
%ADD29R,2.400000X1.600000*%
%ADD30O,2.400000X1.600000*%
%ADD31R,2.000000X3.000000*%
%ADD32C,1.000000*%
%ADD33C,0.500000*%
G04 APERTURE END LIST*
D10*
D11*
X124714000Y-98044000D03*
X119714000Y-98044000D03*
X141224000Y-98044000D03*
X136224000Y-98044000D03*
D12*
X63246000Y-90678000D03*
D11*
X59746000Y-90678000D03*
D13*
X76454000Y-93472000D03*
D14*
X76454000Y-83312000D03*
D15*
X81534000Y-101092000D03*
D16*
X81534000Y-98552000D03*
D15*
X86614000Y-101092000D03*
D16*
X86614000Y-98552000D03*
D15*
X91694000Y-101092000D03*
D16*
X91694000Y-98552000D03*
D15*
X96774000Y-101092000D03*
D16*
X96774000Y-98552000D03*
D15*
X199009000Y-88773000D03*
D16*
X199009000Y-86233000D03*
D15*
X216662000Y-88900000D03*
D16*
X216662000Y-86360000D03*
D15*
X234442000Y-88900000D03*
D16*
X234442000Y-86360000D03*
D15*
X251714000Y-88900000D03*
D16*
X251714000Y-86360000D03*
D13*
X197358000Y-92456000D03*
D14*
X187198000Y-92456000D03*
D17*
X86614000Y-72898000D03*
X91694000Y-72898000D03*
D18*
X81534000Y-72898000D03*
D17*
X96774000Y-72898000D03*
X101854000Y-72898000D03*
X127000000Y-72898000D03*
X132080000Y-72898000D03*
D18*
X121920000Y-72898000D03*
D17*
X137160000Y-72898000D03*
X45720000Y-72898000D03*
X50800000Y-72898000D03*
D18*
X40640000Y-72898000D03*
D17*
X55880000Y-72898000D03*
X217170000Y-72898000D03*
X222250000Y-72898000D03*
D18*
X212090000Y-72898000D03*
D17*
X227330000Y-72898000D03*
X163068000Y-72898000D03*
X168148000Y-72898000D03*
D18*
X157988000Y-72898000D03*
D17*
X173228000Y-72898000D03*
D18*
X188214000Y-122428000D03*
D17*
X193294000Y-122428000D03*
X198374000Y-122428000D03*
D18*
X205740000Y-122428000D03*
D17*
X210820000Y-122428000D03*
X215900000Y-122428000D03*
D18*
X223266000Y-122428000D03*
D17*
X228346000Y-122428000D03*
X233426000Y-122428000D03*
D18*
X240792000Y-122428000D03*
D17*
X245872000Y-122428000D03*
X250952000Y-122428000D03*
X160782000Y-122428000D03*
X165862000Y-122428000D03*
D18*
X155702000Y-122428000D03*
D17*
X170942000Y-122428000D03*
X176022000Y-122428000D03*
D19*
X70358000Y-74168000D03*
D20*
X70358000Y-71628000D03*
D19*
X66040000Y-74168000D03*
D20*
X66040000Y-71628000D03*
D21*
X193421000Y-97790000D03*
X187325000Y-112014000D03*
X187325000Y-99822000D03*
X199390000Y-112014000D03*
X199390000Y-99822000D03*
X210947000Y-97790000D03*
X204851000Y-112014000D03*
X204851000Y-99822000D03*
X216916000Y-112014000D03*
X216916000Y-99822000D03*
X228473000Y-97790000D03*
X222377000Y-112014000D03*
X222377000Y-99822000D03*
X234442000Y-112014000D03*
X234442000Y-99822000D03*
X245999000Y-97790000D03*
X239903000Y-112014000D03*
X239903000Y-99822000D03*
X251968000Y-112014000D03*
X251968000Y-99822000D03*
D22*
X189738000Y-85598000D03*
D23*
X187198000Y-88138000D03*
D24*
X192278000Y-88138000D03*
D22*
X207010000Y-85598000D03*
D23*
X204470000Y-88138000D03*
D24*
X209550000Y-88138000D03*
D22*
X224536000Y-85598000D03*
D23*
X221996000Y-88138000D03*
D24*
X227076000Y-88138000D03*
D22*
X242062000Y-85598000D03*
D23*
X239522000Y-88138000D03*
D24*
X244602000Y-88138000D03*
D25*
X81534000Y-93472000D03*
D26*
X81534000Y-80772000D03*
D25*
X62992000Y-101346000D03*
D26*
X62992000Y-114046000D03*
D25*
X57912000Y-101346000D03*
D26*
X57912000Y-114046000D03*
D25*
X52832000Y-101346000D03*
D26*
X52832000Y-114046000D03*
D25*
X48006000Y-101346000D03*
D26*
X48006000Y-114046000D03*
D25*
X186944000Y-81026000D03*
D26*
X199644000Y-81026000D03*
D27*
X75184000Y-106426000D03*
D28*
X70104000Y-114046000D03*
X72644000Y-106426000D03*
X72644000Y-114046000D03*
X70104000Y-106426000D03*
X75184000Y-114046000D03*
D27*
X86106000Y-106426000D03*
D28*
X81026000Y-114046000D03*
X83566000Y-106426000D03*
X83566000Y-114046000D03*
X81026000Y-106426000D03*
X86106000Y-114046000D03*
D27*
X97028000Y-106426000D03*
D28*
X91948000Y-114046000D03*
X94488000Y-106426000D03*
X94488000Y-114046000D03*
X91948000Y-106426000D03*
X97028000Y-114046000D03*
D27*
X107950000Y-106426000D03*
D28*
X102870000Y-114046000D03*
X105410000Y-106426000D03*
X105410000Y-114046000D03*
X102870000Y-106426000D03*
X107950000Y-114046000D03*
D29*
X118364000Y-103124000D03*
D30*
X125984000Y-118364000D03*
X118364000Y-105664000D03*
X125984000Y-115824000D03*
X118364000Y-108204000D03*
X125984000Y-113284000D03*
X118364000Y-110744000D03*
X125984000Y-110744000D03*
X118364000Y-113284000D03*
X125984000Y-108204000D03*
X118364000Y-115824000D03*
X125984000Y-105664000D03*
X118364000Y-118364000D03*
X125984000Y-103124000D03*
D29*
X134874000Y-102870000D03*
D30*
X142494000Y-118110000D03*
X134874000Y-105410000D03*
X142494000Y-115570000D03*
X134874000Y-107950000D03*
X142494000Y-113030000D03*
X134874000Y-110490000D03*
X142494000Y-110490000D03*
X134874000Y-113030000D03*
X142494000Y-107950000D03*
X134874000Y-115570000D03*
X142494000Y-105410000D03*
X134874000Y-118110000D03*
X142494000Y-102870000D03*
D15*
X43180000Y-86614000D03*
D16*
X40640000Y-86614000D03*
D25*
X137160000Y-80772000D03*
D26*
X137160000Y-93472000D03*
D12*
X62738000Y-81280000D03*
D11*
X60238000Y-81280000D03*
D13*
X71374000Y-93472000D03*
D14*
X71374000Y-83312000D03*
D13*
X106934000Y-93472000D03*
D14*
X106934000Y-83312000D03*
D13*
X101854000Y-93472000D03*
D14*
X101854000Y-83312000D03*
D13*
X40640000Y-81280000D03*
D14*
X50800000Y-81280000D03*
D25*
X86614000Y-93472000D03*
D26*
X86614000Y-80772000D03*
D25*
X91694000Y-93472000D03*
D26*
X91694000Y-80772000D03*
D25*
X96774000Y-93472000D03*
D26*
X96774000Y-80772000D03*
D25*
X40640000Y-92964000D03*
D26*
X53340000Y-92964000D03*
D13*
X214630000Y-92456000D03*
D14*
X204470000Y-92456000D03*
D13*
X232156000Y-92456000D03*
D14*
X221996000Y-92456000D03*
D13*
X249682000Y-92456000D03*
D14*
X239522000Y-92456000D03*
D24*
X151130000Y-108966000D03*
D31*
X153670000Y-111506000D03*
D22*
X153670000Y-106426000D03*
D24*
X160020000Y-108966000D03*
D31*
X162560000Y-111506000D03*
D22*
X162560000Y-106426000D03*
D24*
X168910000Y-108966000D03*
D31*
X171450000Y-111506000D03*
D22*
X171450000Y-106426000D03*
D24*
X177800000Y-108966000D03*
D31*
X180340000Y-111506000D03*
D22*
X180340000Y-106426000D03*
D15*
X151130000Y-99822000D03*
D16*
X153670000Y-99822000D03*
D15*
X160020000Y-99822000D03*
D16*
X162560000Y-99822000D03*
D15*
X168910000Y-99822000D03*
D16*
X171450000Y-99822000D03*
D15*
X177800000Y-99822000D03*
D16*
X180340000Y-99822000D03*
D25*
X116840000Y-80772000D03*
D26*
X116840000Y-93472000D03*
D25*
X111760000Y-80772000D03*
D26*
X111760000Y-93472000D03*
D25*
X147320000Y-80772000D03*
D26*
X147320000Y-93472000D03*
D25*
X142240000Y-80772000D03*
D26*
X142240000Y-93472000D03*
D25*
X204470000Y-81026000D03*
D26*
X217170000Y-81026000D03*
D25*
X221996000Y-81026000D03*
D26*
X234696000Y-81026000D03*
D25*
X239522000Y-81026000D03*
D26*
X252222000Y-81026000D03*
D25*
X152400000Y-80772000D03*
D26*
X152400000Y-93472000D03*
D25*
X161290000Y-80772000D03*
D26*
X161290000Y-93472000D03*
D25*
X170180000Y-80772000D03*
D26*
X170180000Y-93472000D03*
D25*
X121920000Y-80772000D03*
D26*
X121920000Y-93472000D03*
D25*
X127000000Y-80772000D03*
D26*
X127000000Y-93472000D03*
D25*
X132080000Y-80772000D03*
D26*
X132080000Y-93472000D03*
D25*
X179070000Y-80772000D03*
D26*
X179070000Y-93472000D03*
D32*
X216916000Y-99822000D02*
X216916000Y-94742000D01*
X216916000Y-94742000D02*
X214630000Y-92456000D01*
X48006000Y-101346000D02*
X52832000Y-101346000D01*
X52832000Y-101346000D02*
X57912000Y-101346000D01*
X57912000Y-101346000D02*
X62992000Y-101346000D01*
X63246000Y-90678000D02*
X67818000Y-90678000D01*
X40640000Y-81280000D02*
X46228000Y-81280000D01*
X48006000Y-83058000D02*
X48006000Y-101346000D01*
X46228000Y-81280000D02*
X48006000Y-83058000D01*
X62992000Y-101346000D02*
X66548000Y-101346000D01*
X66548000Y-101346000D02*
X67818000Y-100076000D01*
X67818000Y-100076000D02*
X67818000Y-90678000D01*
X67818000Y-90678000D02*
X67818000Y-81534000D01*
X67818000Y-81534000D02*
X70104000Y-79248000D01*
X70104000Y-79248000D02*
X73406000Y-79248000D01*
X73406000Y-79248000D02*
X75438000Y-77216000D01*
X75438000Y-77216000D02*
X75438000Y-73660000D01*
X75438000Y-73660000D02*
X73406000Y-71628000D01*
X73406000Y-71628000D02*
X70358000Y-71628000D01*
X40640000Y-81280000D02*
X40640000Y-86614000D01*
X40640000Y-72898000D02*
X40640000Y-81280000D01*
X251968000Y-99822000D02*
X251968000Y-94742000D01*
X251968000Y-94742000D02*
X249682000Y-92456000D01*
X234442000Y-99822000D02*
X234442000Y-94742000D01*
X234442000Y-94742000D02*
X232156000Y-92456000D01*
X199390000Y-99822000D02*
X199390000Y-94488000D01*
X199390000Y-94488000D02*
X197358000Y-92456000D01*
X59746000Y-90678000D02*
X50800000Y-90678000D01*
X50800000Y-81280000D02*
X50800000Y-90678000D01*
X50800000Y-90678000D02*
X50800000Y-91948000D01*
X50800000Y-91948000D02*
X51816000Y-92964000D01*
X51816000Y-92964000D02*
X53340000Y-92964000D01*
X50800000Y-72898000D02*
X50800000Y-81280000D01*
X50800000Y-81280000D02*
X60238000Y-81280000D01*
X60238000Y-81280000D02*
X60198000Y-81320000D01*
X60198000Y-90226000D02*
X59746000Y-90678000D01*
X45720000Y-72898000D02*
X50800000Y-72898000D01*
X62738000Y-81534000D02*
X62738000Y-71628000D01*
X55880000Y-72898000D02*
X57912000Y-72898000D01*
X59182000Y-71628000D02*
X62738000Y-71628000D01*
X62738000Y-71628000D02*
X66040000Y-71628000D01*
X57912000Y-72898000D02*
X59182000Y-71628000D01*
X76454000Y-93472000D02*
X81534000Y-93472000D01*
X81534000Y-98552000D02*
X81534000Y-93472000D01*
X71374000Y-83312000D02*
X76454000Y-83312000D01*
X71374000Y-83312000D02*
X78994000Y-83312000D01*
X79756000Y-84074000D02*
X88900000Y-84074000D01*
X78994000Y-83312000D02*
X79756000Y-84074000D01*
D33*
X88900000Y-108712000D02*
X88900000Y-84074000D01*
X83566000Y-106426000D02*
X83566000Y-108712000D01*
X94488000Y-108712000D02*
X88900000Y-108712000D01*
X88900000Y-108712000D02*
X83566000Y-108712000D01*
X83566000Y-108712000D02*
X73152000Y-108712000D01*
X72644000Y-108204000D02*
X72644000Y-106426000D01*
X73152000Y-108712000D02*
X72644000Y-108204000D01*
X105410000Y-106426000D02*
X105410000Y-108204000D01*
X94488000Y-108712000D02*
X94488000Y-106426000D01*
X104902000Y-108712000D02*
X94488000Y-108712000D01*
X105410000Y-108204000D02*
X104902000Y-108712000D01*
D32*
X88900000Y-84074000D02*
X89154000Y-84074000D01*
X89154000Y-84074000D02*
X98552000Y-84074000D01*
X98552000Y-84074000D02*
X99314000Y-83312000D01*
X99314000Y-83312000D02*
X101854000Y-83312000D01*
X106934000Y-83312000D02*
X101854000Y-83312000D01*
X101854000Y-83312000D02*
X101854000Y-72898000D01*
X71374000Y-93472000D02*
X71374000Y-90932000D01*
X86614000Y-91186000D02*
X86614000Y-93472000D01*
X85344000Y-89916000D02*
X86614000Y-91186000D01*
X72390000Y-89916000D02*
X85344000Y-89916000D01*
X71374000Y-90932000D02*
X72390000Y-89916000D01*
X86614000Y-98552000D02*
X86614000Y-93472000D01*
X91694000Y-93472000D02*
X91694000Y-91186000D01*
X106934000Y-91186000D02*
X106934000Y-93472000D01*
X105664000Y-89916000D02*
X106934000Y-91186000D01*
X92964000Y-89916000D02*
X105664000Y-89916000D01*
X91694000Y-91186000D02*
X92964000Y-89916000D01*
X91694000Y-98552000D02*
X91694000Y-93472000D01*
X96774000Y-98552000D02*
X96774000Y-93472000D01*
X96774000Y-93472000D02*
X101854000Y-93472000D01*
X75184000Y-106426000D02*
X75184000Y-103378000D01*
X77470000Y-101092000D02*
X81534000Y-101092000D01*
X75184000Y-103378000D02*
X77470000Y-101092000D01*
X86106000Y-106426000D02*
X86106000Y-101600000D01*
X86106000Y-101600000D02*
X86614000Y-101092000D01*
X97028000Y-106426000D02*
X97028000Y-104902000D01*
X91694000Y-102616000D02*
X91694000Y-101092000D01*
X92456000Y-103378000D02*
X91694000Y-102616000D01*
X95504000Y-103378000D02*
X92456000Y-103378000D01*
X97028000Y-104902000D02*
X95504000Y-103378000D01*
X96774000Y-101092000D02*
X106680000Y-101092000D01*
X107950000Y-102362000D02*
X107950000Y-106426000D01*
X106680000Y-101092000D02*
X107950000Y-102362000D01*
X43180000Y-86614000D02*
X43180000Y-91948000D01*
X42164000Y-92964000D02*
X40640000Y-92964000D01*
X43180000Y-91948000D02*
X42164000Y-92964000D01*
X189738000Y-85598000D02*
X193802000Y-85598000D01*
X196977000Y-88773000D02*
X199009000Y-88773000D01*
X193802000Y-85598000D02*
X196977000Y-88773000D01*
X199009000Y-86233000D02*
X199009000Y-81661000D01*
X199009000Y-81661000D02*
X199644000Y-81026000D01*
X207010000Y-85598000D02*
X211582000Y-85598000D01*
X214884000Y-88900000D02*
X216662000Y-88900000D01*
X211582000Y-85598000D02*
X214884000Y-88900000D01*
X216662000Y-86360000D02*
X216662000Y-81534000D01*
X216662000Y-81534000D02*
X217170000Y-81026000D01*
X224536000Y-85598000D02*
X229108000Y-85598000D01*
X232410000Y-88900000D02*
X234442000Y-88900000D01*
X229108000Y-85598000D02*
X232410000Y-88900000D01*
X234442000Y-86360000D02*
X234442000Y-81280000D01*
X234442000Y-81280000D02*
X234696000Y-81026000D01*
X242062000Y-85598000D02*
X246888000Y-85598000D01*
X250190000Y-88900000D02*
X251714000Y-88900000D01*
X246888000Y-85598000D02*
X250190000Y-88900000D01*
X251714000Y-86360000D02*
X251714000Y-81534000D01*
X251714000Y-81534000D02*
X252222000Y-81026000D01*
X251460000Y-81788000D02*
X252222000Y-81026000D01*
X151130000Y-99822000D02*
X151130000Y-108966000D01*
X153670000Y-99822000D02*
X153670000Y-94742000D01*
X153670000Y-94742000D02*
X152400000Y-93472000D01*
X160020000Y-108966000D02*
X160020000Y-99822000D01*
X162560000Y-99822000D02*
X162560000Y-94742000D01*
X162560000Y-94742000D02*
X161290000Y-93472000D01*
X168910000Y-108966000D02*
X168910000Y-99822000D01*
X171450000Y-99822000D02*
X171450000Y-94742000D01*
X171450000Y-94742000D02*
X170180000Y-93472000D01*
X177800000Y-108966000D02*
X177800000Y-99822000D01*
X180340000Y-99822000D02*
X180340000Y-94742000D01*
X180340000Y-94742000D02*
X179070000Y-93472000D01*
X187198000Y-92456000D02*
X187198000Y-88138000D01*
X187325000Y-99822000D02*
X187325000Y-92583000D01*
X187325000Y-92583000D02*
X187198000Y-92456000D01*
X204851000Y-99822000D02*
X204851000Y-92837000D01*
X204597000Y-92837000D02*
X204216000Y-92456000D01*
X204216000Y-92456000D02*
X204216000Y-88138000D01*
X221996000Y-92456000D02*
X221996000Y-88138000D01*
X222377000Y-99822000D02*
X222377000Y-92837000D01*
X222377000Y-92837000D02*
X221996000Y-92456000D01*
X239903000Y-99822000D02*
X239903000Y-92837000D01*
X239903000Y-92837000D02*
X239522000Y-92456000D01*
X239522000Y-92456000D02*
X239522000Y-88138000D01*
X86614000Y-80772000D02*
X86614000Y-72898000D01*
X91694000Y-80772000D02*
X91694000Y-72898000D01*
X81534000Y-80772000D02*
X81534000Y-72898000D01*
X96774000Y-80772000D02*
X96774000Y-72898000D01*
X127000000Y-80772000D02*
X127000000Y-72898000D01*
X132080000Y-72898000D02*
X132080000Y-80772000D01*
X121920000Y-72898000D02*
X121920000Y-80772000D01*
X137160000Y-72898000D02*
X137160000Y-80772000D01*
X204470000Y-81026000D02*
X211836000Y-81026000D01*
X217170000Y-75692000D02*
X217170000Y-72898000D01*
X211836000Y-81026000D02*
X217170000Y-75692000D01*
X221996000Y-81026000D02*
X221996000Y-73152000D01*
X221996000Y-73152000D02*
X222250000Y-72898000D01*
X186944000Y-81026000D02*
X186944000Y-74930000D01*
X188976000Y-72898000D02*
X212090000Y-72898000D01*
X186944000Y-74930000D02*
X188976000Y-72898000D01*
X227330000Y-72898000D02*
X237490000Y-72898000D01*
X239522000Y-74930000D02*
X239522000Y-81026000D01*
X237490000Y-72898000D02*
X239522000Y-74930000D01*
X161290000Y-80772000D02*
X161290000Y-78232000D01*
X163068000Y-76454000D02*
X163068000Y-72898000D01*
X161290000Y-78232000D02*
X163068000Y-76454000D01*
X170180000Y-80772000D02*
X170180000Y-78486000D01*
X168148000Y-76454000D02*
X168148000Y-72898000D01*
X170180000Y-78486000D02*
X168148000Y-76454000D01*
X152400000Y-80772000D02*
X152400000Y-78486000D01*
X152400000Y-78486000D02*
X157988000Y-72898000D01*
X179070000Y-80772000D02*
X179070000Y-78740000D01*
X179070000Y-78740000D02*
X173228000Y-72898000D01*
X188214000Y-122428000D02*
X188214000Y-112903000D01*
X188214000Y-112903000D02*
X187325000Y-112014000D01*
X193294000Y-122428000D02*
X193294000Y-97917000D01*
X193294000Y-97917000D02*
X193421000Y-97790000D01*
X198374000Y-122428000D02*
X198374000Y-113030000D01*
X198374000Y-113030000D02*
X199390000Y-112014000D01*
X205740000Y-122428000D02*
X205740000Y-112903000D01*
X205740000Y-112903000D02*
X204851000Y-112014000D01*
X210820000Y-122428000D02*
X210820000Y-97917000D01*
X210820000Y-97917000D02*
X210947000Y-97790000D01*
X215900000Y-122428000D02*
X215900000Y-113030000D01*
X215900000Y-113030000D02*
X216916000Y-112014000D01*
X223266000Y-122428000D02*
X223266000Y-112903000D01*
X228346000Y-122428000D02*
X228346000Y-97917000D01*
X228346000Y-97917000D02*
X228473000Y-97790000D01*
X233426000Y-122428000D02*
X233426000Y-113030000D01*
X233426000Y-113030000D02*
X234442000Y-112014000D01*
X240792000Y-122428000D02*
X240792000Y-112903000D01*
X240792000Y-112903000D02*
X239903000Y-112014000D01*
X245872000Y-122428000D02*
X245872000Y-97917000D01*
X245872000Y-97917000D02*
X245999000Y-97790000D01*
X250952000Y-122428000D02*
X250952000Y-113030000D01*
X250952000Y-113030000D02*
X251968000Y-112014000D01*
X160782000Y-122428000D02*
X160782000Y-113284000D01*
X160782000Y-113284000D02*
X162560000Y-111506000D01*
X165862000Y-122428000D02*
X165862000Y-117094000D01*
X165862000Y-117094000D02*
X171450000Y-111506000D01*
X155702000Y-122428000D02*
X155702000Y-113538000D01*
X155702000Y-113538000D02*
X153670000Y-111506000D01*
X170942000Y-122428000D02*
X170942000Y-119126000D01*
X178562000Y-111506000D02*
X180340000Y-111506000D01*
X170942000Y-119126000D02*
X178562000Y-111506000D01*
X66040000Y-74168000D02*
X70358000Y-74168000D01*
D33*
X72644000Y-114046000D02*
X72644000Y-109728000D01*
X86360000Y-109728000D02*
X72644000Y-109728000D01*
X72644000Y-109728000D02*
X64262000Y-109728000D01*
X64262000Y-109728000D02*
X62992000Y-110998000D01*
X62992000Y-110998000D02*
X62992000Y-114046000D01*
X115824000Y-103378000D02*
X116078000Y-103124000D01*
X110236000Y-109728000D02*
X86360000Y-109728000D01*
X110236000Y-109728000D02*
X110490000Y-108712000D01*
X112014000Y-107188000D02*
X115062000Y-104140000D01*
X115062000Y-104140000D02*
X115824000Y-103378000D01*
X110490000Y-108712000D02*
X112014000Y-107188000D01*
X116078000Y-103124000D02*
X118364000Y-103124000D01*
X109728000Y-110744000D02*
X112776000Y-110744000D01*
X115316000Y-108204000D02*
X118364000Y-108204000D01*
X112776000Y-110744000D02*
X115316000Y-108204000D01*
X83566000Y-111760000D02*
X83566000Y-111506000D01*
X83566000Y-111506000D02*
X84328000Y-110744000D01*
X84328000Y-110744000D02*
X109728000Y-110744000D01*
X57912000Y-114046000D02*
X57912000Y-116078000D01*
X83566000Y-115824000D02*
X83566000Y-114046000D01*
X82550000Y-116840000D02*
X83566000Y-115824000D01*
X58674000Y-116840000D02*
X82550000Y-116840000D01*
X57912000Y-116078000D02*
X58674000Y-116840000D01*
X83566000Y-114046000D02*
X83566000Y-111760000D01*
X109728000Y-111760000D02*
X112776000Y-111760000D01*
X94488000Y-114046000D02*
X94488000Y-112522000D01*
X94488000Y-112522000D02*
X95250000Y-111760000D01*
X95250000Y-111760000D02*
X95504000Y-111760000D01*
X112776000Y-111760000D02*
X114300000Y-113284000D01*
X114300000Y-113284000D02*
X118364000Y-113284000D01*
X95250000Y-111760000D02*
X95504000Y-111760000D01*
X95504000Y-111760000D02*
X109728000Y-111760000D01*
X52832000Y-114046000D02*
X52832000Y-117348000D01*
X94488000Y-117348000D02*
X94488000Y-114046000D01*
X93726000Y-118110000D02*
X94488000Y-117348000D01*
X53594000Y-118110000D02*
X93726000Y-118110000D01*
X52832000Y-117348000D02*
X53594000Y-118110000D01*
X116078000Y-117094000D02*
X105410000Y-117094000D01*
X48006000Y-114046000D02*
X48006000Y-118364000D01*
X48006000Y-118364000D02*
X49022000Y-119380000D01*
X49022000Y-119380000D02*
X104394000Y-119380000D01*
X104394000Y-119380000D02*
X105410000Y-118364000D01*
X105410000Y-118364000D02*
X105410000Y-117094000D01*
X105410000Y-117094000D02*
X105410000Y-114046000D01*
X124206000Y-115824000D02*
X125984000Y-115824000D01*
X122936000Y-117094000D02*
X124206000Y-115824000D01*
X116078000Y-117094000D02*
X122936000Y-117094000D01*
X115824000Y-106426000D02*
X115824000Y-104902000D01*
X134874000Y-105410000D02*
X131572000Y-105410000D01*
X131572000Y-105410000D02*
X130048000Y-106934000D01*
X130048000Y-106934000D02*
X116332000Y-106934000D01*
X116332000Y-106934000D02*
X115824000Y-106426000D01*
X115824000Y-104902000D02*
X116332000Y-104394000D01*
X116332000Y-104394000D02*
X120650000Y-104394000D01*
X120650000Y-104394000D02*
X121920000Y-103124000D01*
X121920000Y-103124000D02*
X121920000Y-93472000D01*
D32*
X121920000Y-93472000D02*
X116840000Y-93472000D01*
D33*
X136398000Y-110490000D02*
X137414000Y-109474000D01*
X137414000Y-101600000D02*
X137287000Y-101473000D01*
X137414000Y-109474000D02*
X137414000Y-101600000D01*
X137287000Y-101473000D02*
X136144000Y-100330000D01*
X134874000Y-110490000D02*
X136398000Y-110490000D01*
X127000000Y-95758000D02*
X127000000Y-93472000D01*
X131572000Y-100330000D02*
X127000000Y-95758000D01*
X136144000Y-100330000D02*
X131572000Y-100330000D01*
D32*
X111760000Y-93472000D02*
X111760000Y-91440000D01*
X127000000Y-91440000D02*
X127000000Y-93472000D01*
X125476000Y-89916000D02*
X127000000Y-91440000D01*
X113284000Y-89916000D02*
X125476000Y-89916000D01*
X111760000Y-91440000D02*
X113284000Y-89916000D01*
D33*
X134874000Y-115570000D02*
X137160000Y-115570000D01*
X137160000Y-115570000D02*
X138430000Y-114300000D01*
X137541000Y-115189000D02*
X137160000Y-115570000D01*
X137541000Y-115189000D02*
X138430000Y-114300000D01*
X138430000Y-96901000D02*
X137287000Y-95758000D01*
X138430000Y-114300000D02*
X138430000Y-96901000D01*
X134366000Y-95758000D02*
X132080000Y-93472000D01*
X137287000Y-95758000D02*
X134366000Y-95758000D01*
D32*
X132080000Y-93472000D02*
X132080000Y-91948000D01*
X147320000Y-91440000D02*
X147320000Y-93472000D01*
X145796000Y-89916000D02*
X147320000Y-91440000D01*
X134112000Y-89916000D02*
X145796000Y-89916000D01*
X132080000Y-91948000D02*
X134112000Y-89916000D01*
D33*
X144018000Y-118110000D02*
X145034000Y-117094000D01*
X145034000Y-112395000D02*
X144653000Y-112014000D01*
X145034000Y-117094000D02*
X145034000Y-112395000D01*
X139446000Y-110871000D02*
X139446000Y-93472000D01*
X140335000Y-111760000D02*
X139446000Y-110871000D01*
X144399000Y-111760000D02*
X140335000Y-111760000D01*
X144653000Y-112014000D02*
X144399000Y-111760000D01*
X142494000Y-118110000D02*
X144018000Y-118110000D01*
D32*
X137160000Y-93472000D02*
X139446000Y-93472000D01*
X139446000Y-93472000D02*
X142240000Y-93472000D01*
D33*
X125984000Y-118364000D02*
X130048000Y-118364000D01*
X139700000Y-115570000D02*
X142494000Y-115570000D01*
X138430000Y-116840000D02*
X139700000Y-115570000D01*
X131572000Y-116840000D02*
X138430000Y-116840000D01*
X130048000Y-118364000D02*
X131572000Y-116840000D01*
X118364000Y-105664000D02*
X120904000Y-105664000D01*
X131572000Y-102870000D02*
X134874000Y-102870000D01*
X130048000Y-104394000D02*
X131572000Y-102870000D01*
X122174000Y-104394000D02*
X130048000Y-104394000D01*
X120904000Y-105664000D02*
X122174000Y-104394000D01*
X118364000Y-110744000D02*
X121158000Y-110744000D01*
X131572000Y-107950000D02*
X134874000Y-107950000D01*
X130048000Y-109474000D02*
X131572000Y-107950000D01*
X122428000Y-109474000D02*
X130048000Y-109474000D01*
X121158000Y-110744000D02*
X122428000Y-109474000D01*
X118364000Y-115824000D02*
X121412000Y-115824000D01*
X131572000Y-113030000D02*
X134874000Y-113030000D01*
X130048000Y-114554000D02*
X131572000Y-113030000D01*
X122682000Y-114554000D02*
X130048000Y-114554000D01*
X121412000Y-115824000D02*
X122682000Y-114554000D01*
M02*
