M48
;DRILL file {KiCad 4.0.5+dfsg1-4} date Sat Mar 27 15:26:13 2021
;FORMAT={-:-/ absolute / metric / decimal}
FMAT,2
METRIC,TZ
T1C0.800
T2C0.900
T3C1.000
T4C1.100
T5C1.200
T6C1.400
T7C1.520
%
G90
G05
M71
T1
X59.746Y-90.678
X60.238Y-81.28
X62.738Y-81.28
X63.246Y-90.678
X70.104Y-106.426
X70.104Y-114.046
X72.644Y-106.426
X72.644Y-114.046
X75.184Y-106.426
X75.184Y-114.046
X81.026Y-106.426
X81.026Y-114.046
X83.566Y-106.426
X83.566Y-114.046
X86.106Y-106.426
X86.106Y-114.046
X91.948Y-106.426
X91.948Y-114.046
X94.488Y-106.426
X94.488Y-114.046
X97.028Y-106.426
X97.028Y-114.046
X102.87Y-106.426
X102.87Y-114.046
X105.41Y-106.426
X105.41Y-114.046
X107.95Y-106.426
X107.95Y-114.046
X118.364Y-103.124
X118.364Y-105.664
X118.364Y-108.204
X118.364Y-110.744
X118.364Y-113.284
X118.364Y-115.824
X118.364Y-118.364
X119.714Y-98.044
X124.714Y-98.044
X125.984Y-103.124
X125.984Y-105.664
X125.984Y-108.204
X125.984Y-110.744
X125.984Y-113.284
X125.984Y-115.824
X125.984Y-118.364
X134.874Y-102.87
X134.874Y-105.41
X134.874Y-107.95
X134.874Y-110.49
X134.874Y-113.03
X134.874Y-115.57
X134.874Y-118.11
X136.224Y-98.044
X141.224Y-98.044
X142.494Y-102.87
X142.494Y-105.41
X142.494Y-107.95
X142.494Y-110.49
X142.494Y-113.03
X142.494Y-115.57
X142.494Y-118.11
T2
X40.64Y-86.614
X43.18Y-86.614
X81.534Y-98.552
X81.534Y-101.092
X86.614Y-98.552
X86.614Y-101.092
X91.694Y-98.552
X91.694Y-101.092
X96.774Y-98.552
X96.774Y-101.092
X151.13Y-99.822
X153.67Y-99.822
X160.02Y-99.822
X162.56Y-99.822
X168.91Y-99.822
X171.45Y-99.822
X177.8Y-99.822
X180.34Y-99.822
X199.009Y-86.233
X199.009Y-88.773
X216.662Y-86.36
X216.662Y-88.9
X234.442Y-86.36
X234.442Y-88.9
X251.714Y-86.36
X251.714Y-88.9
T3
X66.04Y-71.628
X66.04Y-74.168
X70.358Y-71.628
X70.358Y-74.168
X151.13Y-108.966
X153.67Y-106.426
X153.67Y-111.506
X160.02Y-108.966
X162.56Y-106.426
X162.56Y-111.506
X168.91Y-108.966
X171.45Y-106.426
X171.45Y-111.506
X177.8Y-108.966
X180.34Y-106.426
X180.34Y-111.506
X187.198Y-88.138
X189.738Y-85.598
X192.278Y-88.138
X204.47Y-88.138
X207.01Y-85.598
X209.55Y-88.138
X221.996Y-88.138
X224.536Y-85.598
X227.076Y-88.138
X239.522Y-88.138
X242.062Y-85.598
X244.602Y-88.138
T4
X40.64Y-81.28
X50.8Y-81.28
X71.374Y-83.312
X71.374Y-93.472
X76.454Y-83.312
X76.454Y-93.472
X101.854Y-83.312
X101.854Y-93.472
X106.934Y-83.312
X106.934Y-93.472
X187.198Y-92.456
X197.358Y-92.456
X204.47Y-92.456
X214.63Y-92.456
X221.996Y-92.456
X232.156Y-92.456
X239.522Y-92.456
X249.682Y-92.456
T5
X40.64Y-92.964
X48.006Y-101.346
X48.006Y-114.046
X52.832Y-101.346
X52.832Y-114.046
X53.34Y-92.964
X57.912Y-101.346
X57.912Y-114.046
X62.992Y-101.346
X62.992Y-114.046
X81.534Y-80.772
X81.534Y-93.472
X86.614Y-80.772
X86.614Y-93.472
X91.694Y-80.772
X91.694Y-93.472
X96.774Y-80.772
X96.774Y-93.472
X111.76Y-80.772
X111.76Y-93.472
X116.84Y-80.772
X116.84Y-93.472
X121.92Y-80.772
X121.92Y-93.472
X127.Y-80.772
X127.Y-93.472
X132.08Y-80.772
X132.08Y-93.472
X137.16Y-80.772
X137.16Y-93.472
X142.24Y-80.772
X142.24Y-93.472
X147.32Y-80.772
X147.32Y-93.472
X152.4Y-80.772
X152.4Y-93.472
X161.29Y-80.772
X161.29Y-93.472
X170.18Y-80.772
X170.18Y-93.472
X179.07Y-80.772
X179.07Y-93.472
X186.944Y-81.026
X199.644Y-81.026
X204.47Y-81.026
X217.17Y-81.026
X221.996Y-81.026
X234.696Y-81.026
X239.522Y-81.026
X252.222Y-81.026
T6
X187.325Y-99.822
X187.325Y-112.014
X193.421Y-97.79
X199.39Y-99.822
X199.39Y-112.014
X204.851Y-99.822
X204.851Y-112.014
X210.947Y-97.79
X216.916Y-99.822
X216.916Y-112.014
X222.377Y-99.822
X222.377Y-112.014
X228.473Y-97.79
X234.442Y-99.822
X234.442Y-112.014
X239.903Y-99.822
X239.903Y-112.014
X245.999Y-97.79
X251.968Y-99.822
X251.968Y-112.014
T7
X40.64Y-72.898
X45.72Y-72.898
X50.8Y-72.898
X55.88Y-72.898
X81.534Y-72.898
X86.614Y-72.898
X91.694Y-72.898
X96.774Y-72.898
X101.854Y-72.898
X121.92Y-72.898
X127.Y-72.898
X132.08Y-72.898
X137.16Y-72.898
X155.702Y-122.428
X157.988Y-72.898
X160.782Y-122.428
X163.068Y-72.898
X165.862Y-122.428
X168.148Y-72.898
X170.942Y-122.428
X173.228Y-72.898
X176.022Y-122.428
X188.214Y-122.428
X193.294Y-122.428
X198.374Y-122.428
X205.74Y-122.428
X210.82Y-122.428
X212.09Y-72.898
X215.9Y-122.428
X217.17Y-72.898
X222.25Y-72.898
X223.266Y-122.428
X227.33Y-72.898
X228.346Y-122.428
X233.426Y-122.428
X240.792Y-122.428
X245.872Y-122.428
X250.952Y-122.428
T0
M30
