G04 #@! TF.FileFunction,Legend,Top*
%FSLAX46Y46*%
G04 Gerber Fmt 4.6, Leading zero omitted, Abs format (unit mm)*
G04 Created by KiCad (PCBNEW 4.0.5+dfsg1-4) date Sat Mar 27 15:25:59 2021*
%MOMM*%
%LPD*%
G01*
G04 APERTURE LIST*
%ADD10C,0.100000*%
%ADD11C,0.300000*%
%ADD12C,0.120000*%
%ADD13C,0.150000*%
G04 APERTURE END LIST*
D10*
D11*
X102838572Y-121749429D02*
X102910001Y-121678000D01*
X103052858Y-121606571D01*
X103410001Y-121606571D01*
X103552858Y-121678000D01*
X103624287Y-121749429D01*
X103695715Y-121892286D01*
X103695715Y-122035143D01*
X103624287Y-122249429D01*
X102767144Y-123106571D01*
X103695715Y-123106571D01*
X104624286Y-121606571D02*
X104767143Y-121606571D01*
X104910000Y-121678000D01*
X104981429Y-121749429D01*
X105052858Y-121892286D01*
X105124286Y-122178000D01*
X105124286Y-122535143D01*
X105052858Y-122820857D01*
X104981429Y-122963714D01*
X104910000Y-123035143D01*
X104767143Y-123106571D01*
X104624286Y-123106571D01*
X104481429Y-123035143D01*
X104410000Y-122963714D01*
X104338572Y-122820857D01*
X104267143Y-122535143D01*
X104267143Y-122178000D01*
X104338572Y-121892286D01*
X104410000Y-121749429D01*
X104481429Y-121678000D01*
X104624286Y-121606571D01*
X105695714Y-121749429D02*
X105767143Y-121678000D01*
X105910000Y-121606571D01*
X106267143Y-121606571D01*
X106410000Y-121678000D01*
X106481429Y-121749429D01*
X106552857Y-121892286D01*
X106552857Y-122035143D01*
X106481429Y-122249429D01*
X105624286Y-123106571D01*
X106552857Y-123106571D01*
X107981428Y-123106571D02*
X107124285Y-123106571D01*
X107552857Y-123106571D02*
X107552857Y-121606571D01*
X107410000Y-121820857D01*
X107267142Y-121963714D01*
X107124285Y-122035143D01*
X50110144Y-123785143D02*
X50110144Y-120785143D01*
X51110144Y-122928000D01*
X52110144Y-120785143D01*
X52110144Y-123785143D01*
X53538715Y-123785143D02*
X53538715Y-120785143D01*
X54538715Y-122928000D01*
X55538715Y-120785143D01*
X55538715Y-123785143D01*
X57395857Y-122070857D02*
X57110143Y-121928000D01*
X56967286Y-121785143D01*
X56824429Y-121499429D01*
X56824429Y-121356571D01*
X56967286Y-121070857D01*
X57110143Y-120928000D01*
X57395857Y-120785143D01*
X57967286Y-120785143D01*
X58253000Y-120928000D01*
X58395857Y-121070857D01*
X58538714Y-121356571D01*
X58538714Y-121499429D01*
X58395857Y-121785143D01*
X58253000Y-121928000D01*
X57967286Y-122070857D01*
X57395857Y-122070857D01*
X57110143Y-122213714D01*
X56967286Y-122356571D01*
X56824429Y-122642286D01*
X56824429Y-123213714D01*
X56967286Y-123499429D01*
X57110143Y-123642286D01*
X57395857Y-123785143D01*
X57967286Y-123785143D01*
X58253000Y-123642286D01*
X58395857Y-123499429D01*
X58538714Y-123213714D01*
X58538714Y-122642286D01*
X58395857Y-122356571D01*
X58253000Y-122213714D01*
X57967286Y-122070857D01*
X59824429Y-123785143D02*
X59824429Y-120785143D01*
X60538714Y-120785143D01*
X60967286Y-120928000D01*
X61253000Y-121213714D01*
X61395857Y-121499429D01*
X61538714Y-122070857D01*
X61538714Y-122499429D01*
X61395857Y-123070857D01*
X61253000Y-123356571D01*
X60967286Y-123642286D01*
X60538714Y-123785143D01*
X59824429Y-123785143D01*
X236086001Y-73576571D02*
X236086001Y-72076571D01*
X236443144Y-72076571D01*
X236657429Y-72148000D01*
X236800287Y-72290857D01*
X236871715Y-72433714D01*
X236943144Y-72719429D01*
X236943144Y-72933714D01*
X236871715Y-73219429D01*
X236800287Y-73362286D01*
X236657429Y-73505143D01*
X236443144Y-73576571D01*
X236086001Y-73576571D01*
X237586001Y-72576571D02*
X237586001Y-73576571D01*
X237586001Y-72719429D02*
X237657429Y-72648000D01*
X237800287Y-72576571D01*
X238014572Y-72576571D01*
X238157429Y-72648000D01*
X238228858Y-72790857D01*
X238228858Y-73576571D01*
X238943144Y-73433714D02*
X239014572Y-73505143D01*
X238943144Y-73576571D01*
X238871715Y-73505143D01*
X238943144Y-73433714D01*
X238943144Y-73576571D01*
X239657430Y-73433714D02*
X239728858Y-73505143D01*
X239657430Y-73576571D01*
X239586001Y-73505143D01*
X239657430Y-73433714D01*
X239657430Y-73576571D01*
X239657430Y-72648000D02*
X239728858Y-72719429D01*
X239657430Y-72790857D01*
X239586001Y-72719429D01*
X239657430Y-72648000D01*
X239657430Y-72790857D01*
X242228859Y-72076571D02*
X241514573Y-72076571D01*
X241443144Y-72790857D01*
X241514573Y-72719429D01*
X241657430Y-72648000D01*
X242014573Y-72648000D01*
X242157430Y-72719429D01*
X242228859Y-72790857D01*
X242300287Y-72933714D01*
X242300287Y-73290857D01*
X242228859Y-73433714D01*
X242157430Y-73505143D01*
X242014573Y-73576571D01*
X241657430Y-73576571D01*
X241514573Y-73505143D01*
X241443144Y-73433714D01*
X243014572Y-73576571D02*
X243300287Y-73576571D01*
X243443144Y-73505143D01*
X243514572Y-73433714D01*
X243657430Y-73219429D01*
X243728858Y-72933714D01*
X243728858Y-72362286D01*
X243657430Y-72219429D01*
X243586001Y-72148000D01*
X243443144Y-72076571D01*
X243157430Y-72076571D01*
X243014572Y-72148000D01*
X242943144Y-72219429D01*
X242871715Y-72362286D01*
X242871715Y-72719429D01*
X242943144Y-72862286D01*
X243014572Y-72933714D01*
X243157430Y-73005143D01*
X243443144Y-73005143D01*
X243586001Y-72933714D01*
X243657430Y-72862286D01*
X243728858Y-72719429D01*
X245443143Y-72005143D02*
X244157429Y-73933714D01*
X246728858Y-73576571D02*
X245871715Y-73576571D01*
X246300287Y-73576571D02*
X246300287Y-72076571D01*
X246157430Y-72290857D01*
X246014572Y-72433714D01*
X245871715Y-72505143D01*
X247228858Y-72076571D02*
X248157429Y-72076571D01*
X247657429Y-72648000D01*
X247871715Y-72648000D01*
X248014572Y-72719429D01*
X248086001Y-72790857D01*
X248157429Y-72933714D01*
X248157429Y-73290857D01*
X248086001Y-73433714D01*
X248014572Y-73505143D01*
X247871715Y-73576571D01*
X247443143Y-73576571D01*
X247300286Y-73505143D01*
X247228858Y-73433714D01*
X249871714Y-72005143D02*
X248586000Y-73933714D01*
X250228858Y-72076571D02*
X251157429Y-72076571D01*
X250657429Y-72648000D01*
X250871715Y-72648000D01*
X251014572Y-72719429D01*
X251086001Y-72790857D01*
X251157429Y-72933714D01*
X251157429Y-73290857D01*
X251086001Y-73433714D01*
X251014572Y-73505143D01*
X250871715Y-73576571D01*
X250443143Y-73576571D01*
X250300286Y-73505143D01*
X250228858Y-73433714D01*
D12*
X125774000Y-99354000D02*
X118654000Y-99354000D01*
X125774000Y-96734000D02*
X118654000Y-96734000D01*
X125774000Y-99354000D02*
X125774000Y-96734000D01*
X118654000Y-99354000D02*
X118654000Y-96734000D01*
X142284000Y-99354000D02*
X135164000Y-99354000D01*
X142284000Y-96734000D02*
X135164000Y-96734000D01*
X142284000Y-99354000D02*
X142284000Y-96734000D01*
X135164000Y-99354000D02*
X135164000Y-96734000D01*
X65586000Y-90678000D02*
G75*
G03X65586000Y-90678000I-4090000J0D01*
G01*
X61496000Y-94728000D02*
X61496000Y-86628000D01*
X61456000Y-94728000D02*
X61456000Y-86628000D01*
X61416000Y-94728000D02*
X61416000Y-86628000D01*
X61376000Y-94727000D02*
X61376000Y-86629000D01*
X61336000Y-94725000D02*
X61336000Y-86631000D01*
X61296000Y-94724000D02*
X61296000Y-86632000D01*
X61256000Y-94721000D02*
X61256000Y-86635000D01*
X61216000Y-94719000D02*
X61216000Y-86637000D01*
X61176000Y-94716000D02*
X61176000Y-86640000D01*
X61136000Y-94713000D02*
X61136000Y-86643000D01*
X61096000Y-94709000D02*
X61096000Y-86647000D01*
X61056000Y-94705000D02*
X61056000Y-86651000D01*
X61016000Y-94700000D02*
X61016000Y-86656000D01*
X60976000Y-94695000D02*
X60976000Y-86661000D01*
X60936000Y-94690000D02*
X60936000Y-86666000D01*
X60896000Y-94684000D02*
X60896000Y-86672000D01*
X60856000Y-94678000D02*
X60856000Y-86678000D01*
X60816000Y-94672000D02*
X60816000Y-86684000D01*
X60775000Y-94665000D02*
X60775000Y-86691000D01*
X60735000Y-94657000D02*
X60735000Y-86699000D01*
X60695000Y-94649000D02*
X60695000Y-91658000D01*
X60695000Y-89698000D02*
X60695000Y-86707000D01*
X60655000Y-94641000D02*
X60655000Y-91658000D01*
X60655000Y-89698000D02*
X60655000Y-86715000D01*
X60615000Y-94633000D02*
X60615000Y-91658000D01*
X60615000Y-89698000D02*
X60615000Y-86723000D01*
X60575000Y-94624000D02*
X60575000Y-91658000D01*
X60575000Y-89698000D02*
X60575000Y-86732000D01*
X60535000Y-94614000D02*
X60535000Y-91658000D01*
X60535000Y-89698000D02*
X60535000Y-86742000D01*
X60495000Y-94604000D02*
X60495000Y-91658000D01*
X60495000Y-89698000D02*
X60495000Y-86752000D01*
X60455000Y-94594000D02*
X60455000Y-91658000D01*
X60455000Y-89698000D02*
X60455000Y-86762000D01*
X60415000Y-94583000D02*
X60415000Y-91658000D01*
X60415000Y-89698000D02*
X60415000Y-86773000D01*
X60375000Y-94572000D02*
X60375000Y-91658000D01*
X60375000Y-89698000D02*
X60375000Y-86784000D01*
X60335000Y-94561000D02*
X60335000Y-91658000D01*
X60335000Y-89698000D02*
X60335000Y-86795000D01*
X60295000Y-94548000D02*
X60295000Y-91658000D01*
X60295000Y-89698000D02*
X60295000Y-86808000D01*
X60255000Y-94536000D02*
X60255000Y-91658000D01*
X60255000Y-89698000D02*
X60255000Y-86820000D01*
X60215000Y-94523000D02*
X60215000Y-91658000D01*
X60215000Y-89698000D02*
X60215000Y-86833000D01*
X60175000Y-94510000D02*
X60175000Y-91658000D01*
X60175000Y-89698000D02*
X60175000Y-86846000D01*
X60135000Y-94496000D02*
X60135000Y-91658000D01*
X60135000Y-89698000D02*
X60135000Y-86860000D01*
X60095000Y-94481000D02*
X60095000Y-91658000D01*
X60095000Y-89698000D02*
X60095000Y-86875000D01*
X60055000Y-94467000D02*
X60055000Y-91658000D01*
X60055000Y-89698000D02*
X60055000Y-86889000D01*
X60015000Y-94451000D02*
X60015000Y-91658000D01*
X60015000Y-89698000D02*
X60015000Y-86905000D01*
X59975000Y-94436000D02*
X59975000Y-91658000D01*
X59975000Y-89698000D02*
X59975000Y-86920000D01*
X59935000Y-94419000D02*
X59935000Y-91658000D01*
X59935000Y-89698000D02*
X59935000Y-86937000D01*
X59895000Y-94403000D02*
X59895000Y-91658000D01*
X59895000Y-89698000D02*
X59895000Y-86953000D01*
X59855000Y-94385000D02*
X59855000Y-91658000D01*
X59855000Y-89698000D02*
X59855000Y-86971000D01*
X59815000Y-94368000D02*
X59815000Y-91658000D01*
X59815000Y-89698000D02*
X59815000Y-86988000D01*
X59775000Y-94349000D02*
X59775000Y-91658000D01*
X59775000Y-89698000D02*
X59775000Y-87007000D01*
X59735000Y-94330000D02*
X59735000Y-91658000D01*
X59735000Y-89698000D02*
X59735000Y-87026000D01*
X59695000Y-94311000D02*
X59695000Y-91658000D01*
X59695000Y-89698000D02*
X59695000Y-87045000D01*
X59655000Y-94291000D02*
X59655000Y-91658000D01*
X59655000Y-89698000D02*
X59655000Y-87065000D01*
X59615000Y-94271000D02*
X59615000Y-91658000D01*
X59615000Y-89698000D02*
X59615000Y-87085000D01*
X59575000Y-94250000D02*
X59575000Y-91658000D01*
X59575000Y-89698000D02*
X59575000Y-87106000D01*
X59535000Y-94228000D02*
X59535000Y-91658000D01*
X59535000Y-89698000D02*
X59535000Y-87128000D01*
X59495000Y-94206000D02*
X59495000Y-91658000D01*
X59495000Y-89698000D02*
X59495000Y-87150000D01*
X59455000Y-94183000D02*
X59455000Y-91658000D01*
X59455000Y-89698000D02*
X59455000Y-87173000D01*
X59415000Y-94160000D02*
X59415000Y-91658000D01*
X59415000Y-89698000D02*
X59415000Y-87196000D01*
X59375000Y-94136000D02*
X59375000Y-91658000D01*
X59375000Y-89698000D02*
X59375000Y-87220000D01*
X59335000Y-94112000D02*
X59335000Y-91658000D01*
X59335000Y-89698000D02*
X59335000Y-87244000D01*
X59295000Y-94086000D02*
X59295000Y-91658000D01*
X59295000Y-89698000D02*
X59295000Y-87270000D01*
X59255000Y-94061000D02*
X59255000Y-91658000D01*
X59255000Y-89698000D02*
X59255000Y-87295000D01*
X59215000Y-94034000D02*
X59215000Y-91658000D01*
X59215000Y-89698000D02*
X59215000Y-87322000D01*
X59175000Y-94007000D02*
X59175000Y-91658000D01*
X59175000Y-89698000D02*
X59175000Y-87349000D01*
X59135000Y-93979000D02*
X59135000Y-91658000D01*
X59135000Y-89698000D02*
X59135000Y-87377000D01*
X59095000Y-93950000D02*
X59095000Y-91658000D01*
X59095000Y-89698000D02*
X59095000Y-87406000D01*
X59055000Y-93921000D02*
X59055000Y-91658000D01*
X59055000Y-89698000D02*
X59055000Y-87435000D01*
X59015000Y-93891000D02*
X59015000Y-91658000D01*
X59015000Y-89698000D02*
X59015000Y-87465000D01*
X58975000Y-93860000D02*
X58975000Y-91658000D01*
X58975000Y-89698000D02*
X58975000Y-87496000D01*
X58935000Y-93828000D02*
X58935000Y-91658000D01*
X58935000Y-89698000D02*
X58935000Y-87528000D01*
X58895000Y-93796000D02*
X58895000Y-91658000D01*
X58895000Y-89698000D02*
X58895000Y-87560000D01*
X58855000Y-93762000D02*
X58855000Y-91658000D01*
X58855000Y-89698000D02*
X58855000Y-87594000D01*
X58815000Y-93728000D02*
X58815000Y-91658000D01*
X58815000Y-89698000D02*
X58815000Y-87628000D01*
X58775000Y-93693000D02*
X58775000Y-91658000D01*
X58775000Y-89698000D02*
X58775000Y-87663000D01*
X58735000Y-93657000D02*
X58735000Y-87699000D01*
X58695000Y-93620000D02*
X58695000Y-87736000D01*
X58655000Y-93582000D02*
X58655000Y-87774000D01*
X58615000Y-93543000D02*
X58615000Y-87813000D01*
X58575000Y-93502000D02*
X58575000Y-87854000D01*
X58535000Y-93461000D02*
X58535000Y-87895000D01*
X58495000Y-93418000D02*
X58495000Y-87938000D01*
X58455000Y-93375000D02*
X58455000Y-87981000D01*
X58415000Y-93330000D02*
X58415000Y-88026000D01*
X58375000Y-93283000D02*
X58375000Y-88073000D01*
X58335000Y-93235000D02*
X58335000Y-88121000D01*
X58295000Y-93186000D02*
X58295000Y-88170000D01*
X58255000Y-93135000D02*
X58255000Y-88221000D01*
X58215000Y-93082000D02*
X58215000Y-88274000D01*
X58175000Y-93027000D02*
X58175000Y-88329000D01*
X58135000Y-92971000D02*
X58135000Y-88385000D01*
X58095000Y-92912000D02*
X58095000Y-88444000D01*
X58055000Y-92851000D02*
X58055000Y-88505000D01*
X58015000Y-92787000D02*
X58015000Y-88569000D01*
X57975000Y-92721000D02*
X57975000Y-88635000D01*
X57935000Y-92652000D02*
X57935000Y-88704000D01*
X57895000Y-92580000D02*
X57895000Y-88776000D01*
X57855000Y-92504000D02*
X57855000Y-88852000D01*
X57815000Y-92423000D02*
X57815000Y-88933000D01*
X57775000Y-92338000D02*
X57775000Y-89018000D01*
X57735000Y-92248000D02*
X57735000Y-89108000D01*
X57695000Y-92151000D02*
X57695000Y-89205000D01*
X57655000Y-92047000D02*
X57655000Y-89309000D01*
X57615000Y-91932000D02*
X57615000Y-89424000D01*
X57575000Y-91805000D02*
X57575000Y-89551000D01*
X57535000Y-91661000D02*
X57535000Y-89695000D01*
X57495000Y-91492000D02*
X57495000Y-89864000D01*
X57455000Y-91276000D02*
X57455000Y-90080000D01*
X57415000Y-90924000D02*
X57415000Y-90432000D01*
X65446000Y-90678000D02*
X64246000Y-90678000D01*
X64846000Y-91328000D02*
X64846000Y-90028000D01*
X75044000Y-91052000D02*
X77864000Y-91052000D01*
X77864000Y-91052000D02*
X77864000Y-85732000D01*
X77864000Y-85732000D02*
X75044000Y-85732000D01*
X75044000Y-85732000D02*
X75044000Y-91052000D01*
X76454000Y-92192000D02*
X76454000Y-91052000D01*
X76454000Y-84592000D02*
X76454000Y-85732000D01*
X75044000Y-90212000D02*
X77864000Y-90212000D01*
X80455392Y-98149665D02*
G75*
G03X80298484Y-101382000I1078608J-1672335D01*
G01*
X82612608Y-98149665D02*
G75*
G02X82769516Y-101382000I-1078608J-1672335D01*
G01*
X80454163Y-98780870D02*
G75*
G03X80454000Y-100862961I1079837J-1041130D01*
G01*
X82613837Y-98780870D02*
G75*
G02X82614000Y-100862961I-1079837J-1041130D01*
G01*
X80298000Y-101382000D02*
X80454000Y-101382000D01*
X82614000Y-101382000D02*
X82770000Y-101382000D01*
X85535392Y-98149665D02*
G75*
G03X85378484Y-101382000I1078608J-1672335D01*
G01*
X87692608Y-98149665D02*
G75*
G02X87849516Y-101382000I-1078608J-1672335D01*
G01*
X85534163Y-98780870D02*
G75*
G03X85534000Y-100862961I1079837J-1041130D01*
G01*
X87693837Y-98780870D02*
G75*
G02X87694000Y-100862961I-1079837J-1041130D01*
G01*
X85378000Y-101382000D02*
X85534000Y-101382000D01*
X87694000Y-101382000D02*
X87850000Y-101382000D01*
X90615392Y-98149665D02*
G75*
G03X90458484Y-101382000I1078608J-1672335D01*
G01*
X92772608Y-98149665D02*
G75*
G02X92929516Y-101382000I-1078608J-1672335D01*
G01*
X90614163Y-98780870D02*
G75*
G03X90614000Y-100862961I1079837J-1041130D01*
G01*
X92773837Y-98780870D02*
G75*
G02X92774000Y-100862961I-1079837J-1041130D01*
G01*
X90458000Y-101382000D02*
X90614000Y-101382000D01*
X92774000Y-101382000D02*
X92930000Y-101382000D01*
X95695392Y-98149665D02*
G75*
G03X95538484Y-101382000I1078608J-1672335D01*
G01*
X97852608Y-98149665D02*
G75*
G02X98009516Y-101382000I-1078608J-1672335D01*
G01*
X95694163Y-98780870D02*
G75*
G03X95694000Y-100862961I1079837J-1041130D01*
G01*
X97853837Y-98780870D02*
G75*
G02X97854000Y-100862961I-1079837J-1041130D01*
G01*
X95538000Y-101382000D02*
X95694000Y-101382000D01*
X97854000Y-101382000D02*
X98010000Y-101382000D01*
X197930392Y-85830665D02*
G75*
G03X197773484Y-89063000I1078608J-1672335D01*
G01*
X200087608Y-85830665D02*
G75*
G02X200244516Y-89063000I-1078608J-1672335D01*
G01*
X197929163Y-86461870D02*
G75*
G03X197929000Y-88543961I1079837J-1041130D01*
G01*
X200088837Y-86461870D02*
G75*
G02X200089000Y-88543961I-1079837J-1041130D01*
G01*
X197773000Y-89063000D02*
X197929000Y-89063000D01*
X200089000Y-89063000D02*
X200245000Y-89063000D01*
X215583392Y-85957665D02*
G75*
G03X215426484Y-89190000I1078608J-1672335D01*
G01*
X217740608Y-85957665D02*
G75*
G02X217897516Y-89190000I-1078608J-1672335D01*
G01*
X215582163Y-86588870D02*
G75*
G03X215582000Y-88670961I1079837J-1041130D01*
G01*
X217741837Y-86588870D02*
G75*
G02X217742000Y-88670961I-1079837J-1041130D01*
G01*
X215426000Y-89190000D02*
X215582000Y-89190000D01*
X217742000Y-89190000D02*
X217898000Y-89190000D01*
X233363392Y-85957665D02*
G75*
G03X233206484Y-89190000I1078608J-1672335D01*
G01*
X235520608Y-85957665D02*
G75*
G02X235677516Y-89190000I-1078608J-1672335D01*
G01*
X233362163Y-86588870D02*
G75*
G03X233362000Y-88670961I1079837J-1041130D01*
G01*
X235521837Y-86588870D02*
G75*
G02X235522000Y-88670961I-1079837J-1041130D01*
G01*
X233206000Y-89190000D02*
X233362000Y-89190000D01*
X235522000Y-89190000D02*
X235678000Y-89190000D01*
X250635392Y-85957665D02*
G75*
G03X250478484Y-89190000I1078608J-1672335D01*
G01*
X252792608Y-85957665D02*
G75*
G02X252949516Y-89190000I-1078608J-1672335D01*
G01*
X250634163Y-86588870D02*
G75*
G03X250634000Y-88670961I1079837J-1041130D01*
G01*
X252793837Y-86588870D02*
G75*
G02X252794000Y-88670961I-1079837J-1041130D01*
G01*
X250478000Y-89190000D02*
X250634000Y-89190000D01*
X252794000Y-89190000D02*
X252950000Y-89190000D01*
X194938000Y-93866000D02*
X194938000Y-91046000D01*
X194938000Y-91046000D02*
X189618000Y-91046000D01*
X189618000Y-91046000D02*
X189618000Y-93866000D01*
X189618000Y-93866000D02*
X194938000Y-93866000D01*
X196078000Y-92456000D02*
X194938000Y-92456000D01*
X188478000Y-92456000D02*
X189618000Y-92456000D01*
X194098000Y-93866000D02*
X194098000Y-91046000D01*
X78994000Y-76708000D02*
X104394000Y-76708000D01*
X78994000Y-75438000D02*
X104394000Y-75438000D01*
X78994000Y-69088000D02*
X104394000Y-69088000D01*
X104394000Y-69088000D02*
X104394000Y-76708000D01*
X78994000Y-69088000D02*
X78994000Y-76708000D01*
X119380000Y-69088000D02*
X119380000Y-76708000D01*
X139700000Y-76708000D02*
X139700000Y-69088000D01*
X139700000Y-75438000D02*
X119380000Y-75438000D01*
X119380000Y-69088000D02*
X139700000Y-69088000D01*
X119380000Y-76708000D02*
X139700000Y-76708000D01*
X38100000Y-69088000D02*
X38100000Y-76708000D01*
X58420000Y-76708000D02*
X58420000Y-69088000D01*
X58420000Y-75438000D02*
X38100000Y-75438000D01*
X38100000Y-69088000D02*
X58420000Y-69088000D01*
X38100000Y-76708000D02*
X58420000Y-76708000D01*
X209550000Y-69088000D02*
X209550000Y-76708000D01*
X229870000Y-76708000D02*
X229870000Y-69088000D01*
X229870000Y-75438000D02*
X209550000Y-75438000D01*
X209550000Y-69088000D02*
X229870000Y-69088000D01*
X209550000Y-76708000D02*
X229870000Y-76708000D01*
X155448000Y-69088000D02*
X155448000Y-76708000D01*
X175768000Y-76708000D02*
X175768000Y-69088000D01*
X175768000Y-75438000D02*
X155448000Y-75438000D01*
X155448000Y-69088000D02*
X175768000Y-69088000D01*
X155448000Y-76708000D02*
X175768000Y-76708000D01*
X185674000Y-126238000D02*
X185674000Y-118618000D01*
X200914000Y-126238000D02*
X200914000Y-118618000D01*
X185674000Y-124968000D02*
X200914000Y-124968000D01*
X185674000Y-118618000D02*
X200914000Y-118618000D01*
X185674000Y-126238000D02*
X200914000Y-126238000D01*
X203200000Y-126238000D02*
X203200000Y-118618000D01*
X218440000Y-126238000D02*
X218440000Y-118618000D01*
X203200000Y-124968000D02*
X218440000Y-124968000D01*
X203200000Y-118618000D02*
X218440000Y-118618000D01*
X203200000Y-126238000D02*
X218440000Y-126238000D01*
X220726000Y-126238000D02*
X220726000Y-118618000D01*
X235966000Y-126238000D02*
X235966000Y-118618000D01*
X220726000Y-124968000D02*
X235966000Y-124968000D01*
X220726000Y-118618000D02*
X235966000Y-118618000D01*
X220726000Y-126238000D02*
X235966000Y-126238000D01*
X238252000Y-126238000D02*
X238252000Y-118618000D01*
X253492000Y-126238000D02*
X253492000Y-118618000D01*
X238252000Y-124968000D02*
X253492000Y-124968000D01*
X238252000Y-118618000D02*
X253492000Y-118618000D01*
X238252000Y-126238000D02*
X253492000Y-126238000D01*
X153162000Y-126238000D02*
X178562000Y-126238000D01*
X153162000Y-124968000D02*
X178562000Y-124968000D01*
X153162000Y-118618000D02*
X178562000Y-118618000D01*
X178562000Y-118618000D02*
X178562000Y-126238000D01*
X153162000Y-118618000D02*
X153162000Y-126238000D01*
X71688000Y-72898000D02*
X71688000Y-70298000D01*
X71688000Y-70298000D02*
X69028000Y-70298000D01*
X69028000Y-70298000D02*
X69028000Y-72898000D01*
X69028000Y-72898000D02*
X71688000Y-72898000D01*
X71688000Y-74168000D02*
X71688000Y-75498000D01*
X71688000Y-75498000D02*
X70358000Y-75498000D01*
X67370000Y-72898000D02*
X67370000Y-70298000D01*
X67370000Y-70298000D02*
X64710000Y-70298000D01*
X64710000Y-70298000D02*
X64710000Y-72898000D01*
X64710000Y-72898000D02*
X67370000Y-72898000D01*
X67370000Y-74168000D02*
X67370000Y-75498000D01*
X67370000Y-75498000D02*
X66040000Y-75498000D01*
D13*
X201930000Y-96012000D02*
X201930000Y-94742000D01*
X201930000Y-94742000D02*
X184912000Y-94742000D01*
X184912000Y-94742000D02*
X184912000Y-115824000D01*
X184912000Y-115824000D02*
X201930000Y-115824000D01*
X201930000Y-115824000D02*
X201930000Y-96012000D01*
X219456000Y-96012000D02*
X219456000Y-94742000D01*
X219456000Y-94742000D02*
X202438000Y-94742000D01*
X202438000Y-94742000D02*
X202438000Y-115824000D01*
X202438000Y-115824000D02*
X219456000Y-115824000D01*
X219456000Y-115824000D02*
X219456000Y-96012000D01*
X236982000Y-96012000D02*
X236982000Y-94742000D01*
X236982000Y-94742000D02*
X219964000Y-94742000D01*
X219964000Y-94742000D02*
X219964000Y-115824000D01*
X219964000Y-115824000D02*
X236982000Y-115824000D01*
X236982000Y-115824000D02*
X236982000Y-96012000D01*
X254508000Y-96012000D02*
X254508000Y-94742000D01*
X254508000Y-94742000D02*
X237490000Y-94742000D01*
X237490000Y-94742000D02*
X237490000Y-115824000D01*
X237490000Y-115824000D02*
X254508000Y-115824000D01*
X254508000Y-115824000D02*
X254508000Y-96012000D01*
D12*
X188038000Y-89938000D02*
X191438000Y-89938000D01*
X188287857Y-85988087D02*
G75*
G03X187488000Y-86788000I1250143J-2049913D01*
G01*
X191188143Y-85988087D02*
G75*
G02X191988000Y-86788000I-1250143J-2049913D01*
G01*
X187599377Y-89512368D02*
G75*
G03X187938000Y-89938000I2038623J1274368D01*
G01*
X191876623Y-89512368D02*
G75*
G02X191538000Y-89938000I-2038623J1274368D01*
G01*
X205310000Y-89938000D02*
X208710000Y-89938000D01*
X205559857Y-85988087D02*
G75*
G03X204760000Y-86788000I1250143J-2049913D01*
G01*
X208460143Y-85988087D02*
G75*
G02X209260000Y-86788000I-1250143J-2049913D01*
G01*
X204871377Y-89512368D02*
G75*
G03X205210000Y-89938000I2038623J1274368D01*
G01*
X209148623Y-89512368D02*
G75*
G02X208810000Y-89938000I-2038623J1274368D01*
G01*
X222836000Y-89938000D02*
X226236000Y-89938000D01*
X223085857Y-85988087D02*
G75*
G03X222286000Y-86788000I1250143J-2049913D01*
G01*
X225986143Y-85988087D02*
G75*
G02X226786000Y-86788000I-1250143J-2049913D01*
G01*
X222397377Y-89512368D02*
G75*
G03X222736000Y-89938000I2038623J1274368D01*
G01*
X226674623Y-89512368D02*
G75*
G02X226336000Y-89938000I-2038623J1274368D01*
G01*
X240362000Y-89938000D02*
X243762000Y-89938000D01*
X240611857Y-85988087D02*
G75*
G03X239812000Y-86788000I1250143J-2049913D01*
G01*
X243512143Y-85988087D02*
G75*
G02X244312000Y-86788000I-1250143J-2049913D01*
G01*
X239923377Y-89512368D02*
G75*
G03X240262000Y-89938000I2038623J1274368D01*
G01*
X244200623Y-89512368D02*
G75*
G02X243862000Y-89938000I-2038623J1274368D01*
G01*
X80154000Y-92132000D02*
X79674000Y-92132000D01*
X79674000Y-92132000D02*
X79674000Y-82112000D01*
X79674000Y-82112000D02*
X80154000Y-82112000D01*
X82914000Y-92132000D02*
X83394000Y-92132000D01*
X83394000Y-92132000D02*
X83394000Y-82112000D01*
X83394000Y-82112000D02*
X82914000Y-82112000D01*
X64372000Y-102686000D02*
X64852000Y-102686000D01*
X64852000Y-102686000D02*
X64852000Y-112706000D01*
X64852000Y-112706000D02*
X64372000Y-112706000D01*
X61612000Y-102686000D02*
X61132000Y-102686000D01*
X61132000Y-102686000D02*
X61132000Y-112706000D01*
X61132000Y-112706000D02*
X61612000Y-112706000D01*
X59292000Y-102686000D02*
X59772000Y-102686000D01*
X59772000Y-102686000D02*
X59772000Y-112706000D01*
X59772000Y-112706000D02*
X59292000Y-112706000D01*
X56532000Y-102686000D02*
X56052000Y-102686000D01*
X56052000Y-102686000D02*
X56052000Y-112706000D01*
X56052000Y-112706000D02*
X56532000Y-112706000D01*
X54212000Y-102686000D02*
X54692000Y-102686000D01*
X54692000Y-102686000D02*
X54692000Y-112706000D01*
X54692000Y-112706000D02*
X54212000Y-112706000D01*
X51452000Y-102686000D02*
X50972000Y-102686000D01*
X50972000Y-102686000D02*
X50972000Y-112706000D01*
X50972000Y-112706000D02*
X51452000Y-112706000D01*
X49386000Y-102686000D02*
X49866000Y-102686000D01*
X49866000Y-102686000D02*
X49866000Y-112706000D01*
X49866000Y-112706000D02*
X49386000Y-112706000D01*
X46626000Y-102686000D02*
X46146000Y-102686000D01*
X46146000Y-102686000D02*
X46146000Y-112706000D01*
X46146000Y-112706000D02*
X46626000Y-112706000D01*
X188284000Y-79646000D02*
X188284000Y-79166000D01*
X188284000Y-79166000D02*
X198304000Y-79166000D01*
X198304000Y-79166000D02*
X198304000Y-79646000D01*
X188284000Y-82406000D02*
X188284000Y-82886000D01*
X188284000Y-82886000D02*
X198304000Y-82886000D01*
X198304000Y-82886000D02*
X198304000Y-82406000D01*
X76574000Y-109236000D02*
X76574000Y-107866000D01*
X76574000Y-107866000D02*
X68714000Y-107866000D01*
X68714000Y-107866000D02*
X68714000Y-112606000D01*
X68714000Y-112606000D02*
X76574000Y-112606000D01*
X76574000Y-112606000D02*
X76574000Y-111236000D01*
X76574000Y-111236000D02*
G75*
G02X76574000Y-109236000I0J1000000D01*
G01*
X87496000Y-109236000D02*
X87496000Y-107866000D01*
X87496000Y-107866000D02*
X79636000Y-107866000D01*
X79636000Y-107866000D02*
X79636000Y-112606000D01*
X79636000Y-112606000D02*
X87496000Y-112606000D01*
X87496000Y-112606000D02*
X87496000Y-111236000D01*
X87496000Y-111236000D02*
G75*
G02X87496000Y-109236000I0J1000000D01*
G01*
X98418000Y-109236000D02*
X98418000Y-107866000D01*
X98418000Y-107866000D02*
X90558000Y-107866000D01*
X90558000Y-107866000D02*
X90558000Y-112606000D01*
X90558000Y-112606000D02*
X98418000Y-112606000D01*
X98418000Y-112606000D02*
X98418000Y-111236000D01*
X98418000Y-111236000D02*
G75*
G02X98418000Y-109236000I0J1000000D01*
G01*
X109340000Y-109236000D02*
X109340000Y-107866000D01*
X109340000Y-107866000D02*
X101480000Y-107866000D01*
X101480000Y-107866000D02*
X101480000Y-112606000D01*
X101480000Y-112606000D02*
X109340000Y-112606000D01*
X109340000Y-112606000D02*
X109340000Y-111236000D01*
X109340000Y-111236000D02*
G75*
G02X109340000Y-109236000I0J1000000D01*
G01*
X121174000Y-101734000D02*
X119804000Y-101734000D01*
X119804000Y-101734000D02*
X119804000Y-119754000D01*
X119804000Y-119754000D02*
X124544000Y-119754000D01*
X124544000Y-119754000D02*
X124544000Y-101734000D01*
X124544000Y-101734000D02*
X123174000Y-101734000D01*
X123174000Y-101734000D02*
G75*
G02X121174000Y-101734000I-1000000J0D01*
G01*
X137684000Y-101480000D02*
X136314000Y-101480000D01*
X136314000Y-101480000D02*
X136314000Y-119500000D01*
X136314000Y-119500000D02*
X141054000Y-119500000D01*
X141054000Y-119500000D02*
X141054000Y-101480000D01*
X141054000Y-101480000D02*
X139684000Y-101480000D01*
X139684000Y-101480000D02*
G75*
G02X137684000Y-101480000I-1000000J0D01*
G01*
X40237665Y-87692608D02*
G75*
G03X43470000Y-87849516I1672335J1078608D01*
G01*
X40237665Y-85535392D02*
G75*
G02X43470000Y-85378484I1672335J-1078608D01*
G01*
X40868870Y-87693837D02*
G75*
G03X42950961Y-87694000I1041130J1079837D01*
G01*
X40868870Y-85534163D02*
G75*
G02X42950961Y-85534000I1041130J-1079837D01*
G01*
X43470000Y-87850000D02*
X43470000Y-87694000D01*
X43470000Y-85534000D02*
X43470000Y-85378000D01*
X138540000Y-82112000D02*
X139020000Y-82112000D01*
X139020000Y-82112000D02*
X139020000Y-92132000D01*
X139020000Y-92132000D02*
X138540000Y-92132000D01*
X135780000Y-82112000D02*
X135300000Y-82112000D01*
X135300000Y-82112000D02*
X135300000Y-92132000D01*
X135300000Y-92132000D02*
X135780000Y-92132000D01*
X59182278Y-82459723D02*
G75*
G03X63793580Y-82460000I2305722J1179723D01*
G01*
X59182278Y-80100277D02*
G75*
G02X63793580Y-80100000I2305722J-1179723D01*
G01*
X59182278Y-80100277D02*
G75*
G03X59182420Y-82460000I2305722J-1179723D01*
G01*
X61488000Y-83830000D02*
X61488000Y-78730000D01*
X61448000Y-83830000D02*
X61448000Y-78730000D01*
X61408000Y-83829000D02*
X61408000Y-78731000D01*
X61368000Y-83828000D02*
X61368000Y-78732000D01*
X61328000Y-83826000D02*
X61328000Y-78734000D01*
X61288000Y-83823000D02*
X61288000Y-78737000D01*
X61248000Y-83819000D02*
X61248000Y-78741000D01*
X61208000Y-83815000D02*
X61208000Y-82260000D01*
X61208000Y-80300000D02*
X61208000Y-78745000D01*
X61168000Y-83811000D02*
X61168000Y-82260000D01*
X61168000Y-80300000D02*
X61168000Y-78749000D01*
X61128000Y-83805000D02*
X61128000Y-82260000D01*
X61128000Y-80300000D02*
X61128000Y-78755000D01*
X61088000Y-83799000D02*
X61088000Y-82260000D01*
X61088000Y-80300000D02*
X61088000Y-78761000D01*
X61048000Y-83793000D02*
X61048000Y-82260000D01*
X61048000Y-80300000D02*
X61048000Y-78767000D01*
X61008000Y-83786000D02*
X61008000Y-82260000D01*
X61008000Y-80300000D02*
X61008000Y-78774000D01*
X60968000Y-83778000D02*
X60968000Y-82260000D01*
X60968000Y-80300000D02*
X60968000Y-78782000D01*
X60928000Y-83769000D02*
X60928000Y-82260000D01*
X60928000Y-80300000D02*
X60928000Y-78791000D01*
X60888000Y-83760000D02*
X60888000Y-82260000D01*
X60888000Y-80300000D02*
X60888000Y-78800000D01*
X60848000Y-83750000D02*
X60848000Y-82260000D01*
X60848000Y-80300000D02*
X60848000Y-78810000D01*
X60808000Y-83740000D02*
X60808000Y-82260000D01*
X60808000Y-80300000D02*
X60808000Y-78820000D01*
X60767000Y-83728000D02*
X60767000Y-82260000D01*
X60767000Y-80300000D02*
X60767000Y-78832000D01*
X60727000Y-83716000D02*
X60727000Y-82260000D01*
X60727000Y-80300000D02*
X60727000Y-78844000D01*
X60687000Y-83704000D02*
X60687000Y-82260000D01*
X60687000Y-80300000D02*
X60687000Y-78856000D01*
X60647000Y-83690000D02*
X60647000Y-82260000D01*
X60647000Y-80300000D02*
X60647000Y-78870000D01*
X60607000Y-83676000D02*
X60607000Y-82260000D01*
X60607000Y-80300000D02*
X60607000Y-78884000D01*
X60567000Y-83662000D02*
X60567000Y-82260000D01*
X60567000Y-80300000D02*
X60567000Y-78898000D01*
X60527000Y-83646000D02*
X60527000Y-82260000D01*
X60527000Y-80300000D02*
X60527000Y-78914000D01*
X60487000Y-83630000D02*
X60487000Y-82260000D01*
X60487000Y-80300000D02*
X60487000Y-78930000D01*
X60447000Y-83613000D02*
X60447000Y-82260000D01*
X60447000Y-80300000D02*
X60447000Y-78947000D01*
X60407000Y-83595000D02*
X60407000Y-82260000D01*
X60407000Y-80300000D02*
X60407000Y-78965000D01*
X60367000Y-83576000D02*
X60367000Y-82260000D01*
X60367000Y-80300000D02*
X60367000Y-78984000D01*
X60327000Y-83556000D02*
X60327000Y-82260000D01*
X60327000Y-80300000D02*
X60327000Y-79004000D01*
X60287000Y-83536000D02*
X60287000Y-82260000D01*
X60287000Y-80300000D02*
X60287000Y-79024000D01*
X60247000Y-83514000D02*
X60247000Y-82260000D01*
X60247000Y-80300000D02*
X60247000Y-79046000D01*
X60207000Y-83492000D02*
X60207000Y-82260000D01*
X60207000Y-80300000D02*
X60207000Y-79068000D01*
X60167000Y-83469000D02*
X60167000Y-82260000D01*
X60167000Y-80300000D02*
X60167000Y-79091000D01*
X60127000Y-83445000D02*
X60127000Y-82260000D01*
X60127000Y-80300000D02*
X60127000Y-79115000D01*
X60087000Y-83420000D02*
X60087000Y-82260000D01*
X60087000Y-80300000D02*
X60087000Y-79140000D01*
X60047000Y-83393000D02*
X60047000Y-82260000D01*
X60047000Y-80300000D02*
X60047000Y-79167000D01*
X60007000Y-83366000D02*
X60007000Y-82260000D01*
X60007000Y-80300000D02*
X60007000Y-79194000D01*
X59967000Y-83338000D02*
X59967000Y-82260000D01*
X59967000Y-80300000D02*
X59967000Y-79222000D01*
X59927000Y-83308000D02*
X59927000Y-82260000D01*
X59927000Y-80300000D02*
X59927000Y-79252000D01*
X59887000Y-83277000D02*
X59887000Y-82260000D01*
X59887000Y-80300000D02*
X59887000Y-79283000D01*
X59847000Y-83245000D02*
X59847000Y-82260000D01*
X59847000Y-80300000D02*
X59847000Y-79315000D01*
X59807000Y-83212000D02*
X59807000Y-82260000D01*
X59807000Y-80300000D02*
X59807000Y-79348000D01*
X59767000Y-83177000D02*
X59767000Y-82260000D01*
X59767000Y-80300000D02*
X59767000Y-79383000D01*
X59727000Y-83141000D02*
X59727000Y-82260000D01*
X59727000Y-80300000D02*
X59727000Y-79419000D01*
X59687000Y-83103000D02*
X59687000Y-82260000D01*
X59687000Y-80300000D02*
X59687000Y-79457000D01*
X59647000Y-83063000D02*
X59647000Y-82260000D01*
X59647000Y-80300000D02*
X59647000Y-79497000D01*
X59607000Y-83022000D02*
X59607000Y-82260000D01*
X59607000Y-80300000D02*
X59607000Y-79538000D01*
X59567000Y-82979000D02*
X59567000Y-82260000D01*
X59567000Y-80300000D02*
X59567000Y-79581000D01*
X59527000Y-82934000D02*
X59527000Y-82260000D01*
X59527000Y-80300000D02*
X59527000Y-79626000D01*
X59487000Y-82886000D02*
X59487000Y-82260000D01*
X59487000Y-80300000D02*
X59487000Y-79674000D01*
X59447000Y-82836000D02*
X59447000Y-82260000D01*
X59447000Y-80300000D02*
X59447000Y-79724000D01*
X59407000Y-82784000D02*
X59407000Y-82260000D01*
X59407000Y-80300000D02*
X59407000Y-79776000D01*
X59367000Y-82728000D02*
X59367000Y-82260000D01*
X59367000Y-80300000D02*
X59367000Y-79832000D01*
X59327000Y-82670000D02*
X59327000Y-82260000D01*
X59327000Y-80300000D02*
X59327000Y-79890000D01*
X59287000Y-82607000D02*
X59287000Y-82260000D01*
X59287000Y-80300000D02*
X59287000Y-79953000D01*
X59247000Y-82541000D02*
X59247000Y-80019000D01*
X59207000Y-82469000D02*
X59207000Y-80091000D01*
X59167000Y-82392000D02*
X59167000Y-80168000D01*
X59127000Y-82308000D02*
X59127000Y-80252000D01*
X59087000Y-82214000D02*
X59087000Y-80346000D01*
X59047000Y-82109000D02*
X59047000Y-80451000D01*
X59007000Y-81987000D02*
X59007000Y-80573000D01*
X58967000Y-81839000D02*
X58967000Y-80721000D01*
X58927000Y-81634000D02*
X58927000Y-80926000D01*
X64938000Y-81280000D02*
X63738000Y-81280000D01*
X64338000Y-81930000D02*
X64338000Y-80630000D01*
X69964000Y-91052000D02*
X72784000Y-91052000D01*
X72784000Y-91052000D02*
X72784000Y-85732000D01*
X72784000Y-85732000D02*
X69964000Y-85732000D01*
X69964000Y-85732000D02*
X69964000Y-91052000D01*
X71374000Y-92192000D02*
X71374000Y-91052000D01*
X71374000Y-84592000D02*
X71374000Y-85732000D01*
X69964000Y-90212000D02*
X72784000Y-90212000D01*
X105524000Y-91052000D02*
X108344000Y-91052000D01*
X108344000Y-91052000D02*
X108344000Y-85732000D01*
X108344000Y-85732000D02*
X105524000Y-85732000D01*
X105524000Y-85732000D02*
X105524000Y-91052000D01*
X106934000Y-92192000D02*
X106934000Y-91052000D01*
X106934000Y-84592000D02*
X106934000Y-85732000D01*
X105524000Y-90212000D02*
X108344000Y-90212000D01*
X100444000Y-91052000D02*
X103264000Y-91052000D01*
X103264000Y-91052000D02*
X103264000Y-85732000D01*
X103264000Y-85732000D02*
X100444000Y-85732000D01*
X100444000Y-85732000D02*
X100444000Y-91052000D01*
X101854000Y-92192000D02*
X101854000Y-91052000D01*
X101854000Y-84592000D02*
X101854000Y-85732000D01*
X100444000Y-90212000D02*
X103264000Y-90212000D01*
X43060000Y-79870000D02*
X43060000Y-82690000D01*
X43060000Y-82690000D02*
X48380000Y-82690000D01*
X48380000Y-82690000D02*
X48380000Y-79870000D01*
X48380000Y-79870000D02*
X43060000Y-79870000D01*
X41920000Y-81280000D02*
X43060000Y-81280000D01*
X49520000Y-81280000D02*
X48380000Y-81280000D01*
X43900000Y-79870000D02*
X43900000Y-82690000D01*
X85234000Y-92132000D02*
X84754000Y-92132000D01*
X84754000Y-92132000D02*
X84754000Y-82112000D01*
X84754000Y-82112000D02*
X85234000Y-82112000D01*
X87994000Y-92132000D02*
X88474000Y-92132000D01*
X88474000Y-92132000D02*
X88474000Y-82112000D01*
X88474000Y-82112000D02*
X87994000Y-82112000D01*
X90314000Y-92132000D02*
X89834000Y-92132000D01*
X89834000Y-92132000D02*
X89834000Y-82112000D01*
X89834000Y-82112000D02*
X90314000Y-82112000D01*
X93074000Y-92132000D02*
X93554000Y-92132000D01*
X93554000Y-92132000D02*
X93554000Y-82112000D01*
X93554000Y-82112000D02*
X93074000Y-82112000D01*
X95394000Y-92132000D02*
X94914000Y-92132000D01*
X94914000Y-92132000D02*
X94914000Y-82112000D01*
X94914000Y-82112000D02*
X95394000Y-82112000D01*
X98154000Y-92132000D02*
X98634000Y-92132000D01*
X98634000Y-92132000D02*
X98634000Y-82112000D01*
X98634000Y-82112000D02*
X98154000Y-82112000D01*
X41980000Y-91584000D02*
X41980000Y-91104000D01*
X41980000Y-91104000D02*
X52000000Y-91104000D01*
X52000000Y-91104000D02*
X52000000Y-91584000D01*
X41980000Y-94344000D02*
X41980000Y-94824000D01*
X41980000Y-94824000D02*
X52000000Y-94824000D01*
X52000000Y-94824000D02*
X52000000Y-94344000D01*
X212210000Y-93866000D02*
X212210000Y-91046000D01*
X212210000Y-91046000D02*
X206890000Y-91046000D01*
X206890000Y-91046000D02*
X206890000Y-93866000D01*
X206890000Y-93866000D02*
X212210000Y-93866000D01*
X213350000Y-92456000D02*
X212210000Y-92456000D01*
X205750000Y-92456000D02*
X206890000Y-92456000D01*
X211370000Y-93866000D02*
X211370000Y-91046000D01*
X229736000Y-93866000D02*
X229736000Y-91046000D01*
X229736000Y-91046000D02*
X224416000Y-91046000D01*
X224416000Y-91046000D02*
X224416000Y-93866000D01*
X224416000Y-93866000D02*
X229736000Y-93866000D01*
X230876000Y-92456000D02*
X229736000Y-92456000D01*
X223276000Y-92456000D02*
X224416000Y-92456000D01*
X228896000Y-93866000D02*
X228896000Y-91046000D01*
X247262000Y-93866000D02*
X247262000Y-91046000D01*
X247262000Y-91046000D02*
X241942000Y-91046000D01*
X241942000Y-91046000D02*
X241942000Y-93866000D01*
X241942000Y-93866000D02*
X247262000Y-93866000D01*
X248402000Y-92456000D02*
X247262000Y-92456000D01*
X240802000Y-92456000D02*
X241942000Y-92456000D01*
X246422000Y-93866000D02*
X246422000Y-91046000D01*
X155470000Y-110666000D02*
X155470000Y-107266000D01*
X151520087Y-110416143D02*
G75*
G03X152320000Y-111216000I2049913J1250143D01*
G01*
X151520087Y-107515857D02*
G75*
G02X152320000Y-106716000I2049913J-1250143D01*
G01*
X155044368Y-111104623D02*
G75*
G03X155470000Y-110766000I-1274368J2038623D01*
G01*
X155044368Y-106827377D02*
G75*
G02X155470000Y-107166000I-1274368J-2038623D01*
G01*
X164360000Y-110666000D02*
X164360000Y-107266000D01*
X160410087Y-110416143D02*
G75*
G03X161210000Y-111216000I2049913J1250143D01*
G01*
X160410087Y-107515857D02*
G75*
G02X161210000Y-106716000I2049913J-1250143D01*
G01*
X163934368Y-111104623D02*
G75*
G03X164360000Y-110766000I-1274368J2038623D01*
G01*
X163934368Y-106827377D02*
G75*
G02X164360000Y-107166000I-1274368J-2038623D01*
G01*
X173250000Y-110666000D02*
X173250000Y-107266000D01*
X169300087Y-110416143D02*
G75*
G03X170100000Y-111216000I2049913J1250143D01*
G01*
X169300087Y-107515857D02*
G75*
G02X170100000Y-106716000I2049913J-1250143D01*
G01*
X172824368Y-111104623D02*
G75*
G03X173250000Y-110766000I-1274368J2038623D01*
G01*
X172824368Y-106827377D02*
G75*
G02X173250000Y-107166000I-1274368J-2038623D01*
G01*
X182140000Y-110666000D02*
X182140000Y-107266000D01*
X178190087Y-110416143D02*
G75*
G03X178990000Y-111216000I2049913J1250143D01*
G01*
X178190087Y-107515857D02*
G75*
G02X178990000Y-106716000I2049913J-1250143D01*
G01*
X181714368Y-111104623D02*
G75*
G03X182140000Y-110766000I-1274368J2038623D01*
G01*
X181714368Y-106827377D02*
G75*
G02X182140000Y-107166000I-1274368J-2038623D01*
G01*
X154072335Y-98743392D02*
G75*
G03X150840000Y-98586484I-1672335J-1078608D01*
G01*
X154072335Y-100900608D02*
G75*
G02X150840000Y-101057516I-1672335J1078608D01*
G01*
X153441130Y-98742163D02*
G75*
G03X151359039Y-98742000I-1041130J-1079837D01*
G01*
X153441130Y-100901837D02*
G75*
G02X151359039Y-100902000I-1041130J1079837D01*
G01*
X150840000Y-98586000D02*
X150840000Y-98742000D01*
X150840000Y-100902000D02*
X150840000Y-101058000D01*
X162962335Y-98743392D02*
G75*
G03X159730000Y-98586484I-1672335J-1078608D01*
G01*
X162962335Y-100900608D02*
G75*
G02X159730000Y-101057516I-1672335J1078608D01*
G01*
X162331130Y-98742163D02*
G75*
G03X160249039Y-98742000I-1041130J-1079837D01*
G01*
X162331130Y-100901837D02*
G75*
G02X160249039Y-100902000I-1041130J1079837D01*
G01*
X159730000Y-98586000D02*
X159730000Y-98742000D01*
X159730000Y-100902000D02*
X159730000Y-101058000D01*
X171852335Y-98743392D02*
G75*
G03X168620000Y-98586484I-1672335J-1078608D01*
G01*
X171852335Y-100900608D02*
G75*
G02X168620000Y-101057516I-1672335J1078608D01*
G01*
X171221130Y-98742163D02*
G75*
G03X169139039Y-98742000I-1041130J-1079837D01*
G01*
X171221130Y-100901837D02*
G75*
G02X169139039Y-100902000I-1041130J1079837D01*
G01*
X168620000Y-98586000D02*
X168620000Y-98742000D01*
X168620000Y-100902000D02*
X168620000Y-101058000D01*
X180742335Y-98743392D02*
G75*
G03X177510000Y-98586484I-1672335J-1078608D01*
G01*
X180742335Y-100900608D02*
G75*
G02X177510000Y-101057516I-1672335J1078608D01*
G01*
X180111130Y-98742163D02*
G75*
G03X178029039Y-98742000I-1041130J-1079837D01*
G01*
X180111130Y-100901837D02*
G75*
G02X178029039Y-100902000I-1041130J1079837D01*
G01*
X177510000Y-98586000D02*
X177510000Y-98742000D01*
X177510000Y-100902000D02*
X177510000Y-101058000D01*
X118220000Y-82112000D02*
X118700000Y-82112000D01*
X118700000Y-82112000D02*
X118700000Y-92132000D01*
X118700000Y-92132000D02*
X118220000Y-92132000D01*
X115460000Y-82112000D02*
X114980000Y-82112000D01*
X114980000Y-82112000D02*
X114980000Y-92132000D01*
X114980000Y-92132000D02*
X115460000Y-92132000D01*
X113140000Y-82112000D02*
X113620000Y-82112000D01*
X113620000Y-82112000D02*
X113620000Y-92132000D01*
X113620000Y-92132000D02*
X113140000Y-92132000D01*
X110380000Y-82112000D02*
X109900000Y-82112000D01*
X109900000Y-82112000D02*
X109900000Y-92132000D01*
X109900000Y-92132000D02*
X110380000Y-92132000D01*
X148700000Y-82112000D02*
X149180000Y-82112000D01*
X149180000Y-82112000D02*
X149180000Y-92132000D01*
X149180000Y-92132000D02*
X148700000Y-92132000D01*
X145940000Y-82112000D02*
X145460000Y-82112000D01*
X145460000Y-82112000D02*
X145460000Y-92132000D01*
X145460000Y-92132000D02*
X145940000Y-92132000D01*
X143620000Y-82112000D02*
X144100000Y-82112000D01*
X144100000Y-82112000D02*
X144100000Y-92132000D01*
X144100000Y-92132000D02*
X143620000Y-92132000D01*
X140860000Y-82112000D02*
X140380000Y-82112000D01*
X140380000Y-82112000D02*
X140380000Y-92132000D01*
X140380000Y-92132000D02*
X140860000Y-92132000D01*
X205810000Y-79646000D02*
X205810000Y-79166000D01*
X205810000Y-79166000D02*
X215830000Y-79166000D01*
X215830000Y-79166000D02*
X215830000Y-79646000D01*
X205810000Y-82406000D02*
X205810000Y-82886000D01*
X205810000Y-82886000D02*
X215830000Y-82886000D01*
X215830000Y-82886000D02*
X215830000Y-82406000D01*
X223336000Y-79646000D02*
X223336000Y-79166000D01*
X223336000Y-79166000D02*
X233356000Y-79166000D01*
X233356000Y-79166000D02*
X233356000Y-79646000D01*
X223336000Y-82406000D02*
X223336000Y-82886000D01*
X223336000Y-82886000D02*
X233356000Y-82886000D01*
X233356000Y-82886000D02*
X233356000Y-82406000D01*
X240862000Y-79646000D02*
X240862000Y-79166000D01*
X240862000Y-79166000D02*
X250882000Y-79166000D01*
X250882000Y-79166000D02*
X250882000Y-79646000D01*
X240862000Y-82406000D02*
X240862000Y-82886000D01*
X240862000Y-82886000D02*
X250882000Y-82886000D01*
X250882000Y-82886000D02*
X250882000Y-82406000D01*
X153780000Y-82112000D02*
X154260000Y-82112000D01*
X154260000Y-82112000D02*
X154260000Y-92132000D01*
X154260000Y-92132000D02*
X153780000Y-92132000D01*
X151020000Y-82112000D02*
X150540000Y-82112000D01*
X150540000Y-82112000D02*
X150540000Y-92132000D01*
X150540000Y-92132000D02*
X151020000Y-92132000D01*
X162670000Y-82112000D02*
X163150000Y-82112000D01*
X163150000Y-82112000D02*
X163150000Y-92132000D01*
X163150000Y-92132000D02*
X162670000Y-92132000D01*
X159910000Y-82112000D02*
X159430000Y-82112000D01*
X159430000Y-82112000D02*
X159430000Y-92132000D01*
X159430000Y-92132000D02*
X159910000Y-92132000D01*
X171560000Y-82112000D02*
X172040000Y-82112000D01*
X172040000Y-82112000D02*
X172040000Y-92132000D01*
X172040000Y-92132000D02*
X171560000Y-92132000D01*
X168800000Y-82112000D02*
X168320000Y-82112000D01*
X168320000Y-82112000D02*
X168320000Y-92132000D01*
X168320000Y-92132000D02*
X168800000Y-92132000D01*
X123300000Y-82112000D02*
X123780000Y-82112000D01*
X123780000Y-82112000D02*
X123780000Y-92132000D01*
X123780000Y-92132000D02*
X123300000Y-92132000D01*
X120540000Y-82112000D02*
X120060000Y-82112000D01*
X120060000Y-82112000D02*
X120060000Y-92132000D01*
X120060000Y-92132000D02*
X120540000Y-92132000D01*
X128380000Y-82112000D02*
X128860000Y-82112000D01*
X128860000Y-82112000D02*
X128860000Y-92132000D01*
X128860000Y-92132000D02*
X128380000Y-92132000D01*
X125620000Y-82112000D02*
X125140000Y-82112000D01*
X125140000Y-82112000D02*
X125140000Y-92132000D01*
X125140000Y-92132000D02*
X125620000Y-92132000D01*
X133460000Y-82112000D02*
X133940000Y-82112000D01*
X133940000Y-82112000D02*
X133940000Y-92132000D01*
X133940000Y-92132000D02*
X133460000Y-92132000D01*
X130700000Y-82112000D02*
X130220000Y-82112000D01*
X130220000Y-82112000D02*
X130220000Y-92132000D01*
X130220000Y-92132000D02*
X130700000Y-92132000D01*
X180450000Y-82112000D02*
X180930000Y-82112000D01*
X180930000Y-82112000D02*
X180930000Y-92132000D01*
X180930000Y-92132000D02*
X180450000Y-92132000D01*
X177690000Y-82112000D02*
X177210000Y-82112000D01*
X177210000Y-82112000D02*
X177210000Y-92132000D01*
X177210000Y-92132000D02*
X177690000Y-92132000D01*
D13*
X116546334Y-98401143D02*
X116498715Y-98448762D01*
X116355858Y-98496381D01*
X116260620Y-98496381D01*
X116117762Y-98448762D01*
X116022524Y-98353524D01*
X115974905Y-98258286D01*
X115927286Y-98067810D01*
X115927286Y-97924952D01*
X115974905Y-97734476D01*
X116022524Y-97639238D01*
X116117762Y-97544000D01*
X116260620Y-97496381D01*
X116355858Y-97496381D01*
X116498715Y-97544000D01*
X116546334Y-97591619D01*
X117498715Y-98496381D02*
X116927286Y-98496381D01*
X117213000Y-98496381D02*
X117213000Y-97496381D01*
X117117762Y-97639238D01*
X117022524Y-97734476D01*
X116927286Y-97782095D01*
X133056334Y-98401143D02*
X133008715Y-98448762D01*
X132865858Y-98496381D01*
X132770620Y-98496381D01*
X132627762Y-98448762D01*
X132532524Y-98353524D01*
X132484905Y-98258286D01*
X132437286Y-98067810D01*
X132437286Y-97924952D01*
X132484905Y-97734476D01*
X132532524Y-97639238D01*
X132627762Y-97544000D01*
X132770620Y-97496381D01*
X132865858Y-97496381D01*
X133008715Y-97544000D01*
X133056334Y-97591619D01*
X133437286Y-97591619D02*
X133484905Y-97544000D01*
X133580143Y-97496381D01*
X133818239Y-97496381D01*
X133913477Y-97544000D01*
X133961096Y-97591619D01*
X134008715Y-97686857D01*
X134008715Y-97782095D01*
X133961096Y-97924952D01*
X133389667Y-98496381D01*
X134008715Y-98496381D01*
X61301334Y-97131143D02*
X61253715Y-97178762D01*
X61110858Y-97226381D01*
X61015620Y-97226381D01*
X60872762Y-97178762D01*
X60777524Y-97083524D01*
X60729905Y-96988286D01*
X60682286Y-96797810D01*
X60682286Y-96654952D01*
X60729905Y-96464476D01*
X60777524Y-96369238D01*
X60872762Y-96274000D01*
X61015620Y-96226381D01*
X61110858Y-96226381D01*
X61253715Y-96274000D01*
X61301334Y-96321619D01*
X61634667Y-96226381D02*
X62253715Y-96226381D01*
X61920381Y-96607333D01*
X62063239Y-96607333D01*
X62158477Y-96654952D01*
X62206096Y-96702571D01*
X62253715Y-96797810D01*
X62253715Y-97035905D01*
X62206096Y-97131143D01*
X62158477Y-97178762D01*
X62063239Y-97226381D01*
X61777524Y-97226381D01*
X61682286Y-97178762D01*
X61634667Y-97131143D01*
X75588905Y-81351381D02*
X75588905Y-80351381D01*
X75827000Y-80351381D01*
X75969858Y-80399000D01*
X76065096Y-80494238D01*
X76112715Y-80589476D01*
X76160334Y-80779952D01*
X76160334Y-80922810D01*
X76112715Y-81113286D01*
X76065096Y-81208524D01*
X75969858Y-81303762D01*
X75827000Y-81351381D01*
X75588905Y-81351381D01*
X77112715Y-81351381D02*
X76541286Y-81351381D01*
X76827000Y-81351381D02*
X76827000Y-80351381D01*
X76731762Y-80494238D01*
X76636524Y-80589476D01*
X76541286Y-80637095D01*
X81049905Y-103703381D02*
X81049905Y-102703381D01*
X81288000Y-102703381D01*
X81430858Y-102751000D01*
X81526096Y-102846238D01*
X81573715Y-102941476D01*
X81621334Y-103131952D01*
X81621334Y-103274810D01*
X81573715Y-103465286D01*
X81526096Y-103560524D01*
X81430858Y-103655762D01*
X81288000Y-103703381D01*
X81049905Y-103703381D01*
X82526096Y-102703381D02*
X82049905Y-102703381D01*
X82002286Y-103179571D01*
X82049905Y-103131952D01*
X82145143Y-103084333D01*
X82383239Y-103084333D01*
X82478477Y-103131952D01*
X82526096Y-103179571D01*
X82573715Y-103274810D01*
X82573715Y-103512905D01*
X82526096Y-103608143D01*
X82478477Y-103655762D01*
X82383239Y-103703381D01*
X82145143Y-103703381D01*
X82049905Y-103655762D01*
X82002286Y-103608143D01*
X86002905Y-103703381D02*
X86002905Y-102703381D01*
X86241000Y-102703381D01*
X86383858Y-102751000D01*
X86479096Y-102846238D01*
X86526715Y-102941476D01*
X86574334Y-103131952D01*
X86574334Y-103274810D01*
X86526715Y-103465286D01*
X86479096Y-103560524D01*
X86383858Y-103655762D01*
X86241000Y-103703381D01*
X86002905Y-103703381D01*
X87431477Y-102703381D02*
X87241000Y-102703381D01*
X87145762Y-102751000D01*
X87098143Y-102798619D01*
X87002905Y-102941476D01*
X86955286Y-103131952D01*
X86955286Y-103512905D01*
X87002905Y-103608143D01*
X87050524Y-103655762D01*
X87145762Y-103703381D01*
X87336239Y-103703381D01*
X87431477Y-103655762D01*
X87479096Y-103608143D01*
X87526715Y-103512905D01*
X87526715Y-103274810D01*
X87479096Y-103179571D01*
X87431477Y-103131952D01*
X87336239Y-103084333D01*
X87145762Y-103084333D01*
X87050524Y-103131952D01*
X87002905Y-103179571D01*
X86955286Y-103274810D01*
X90955905Y-103703381D02*
X90955905Y-102703381D01*
X91194000Y-102703381D01*
X91336858Y-102751000D01*
X91432096Y-102846238D01*
X91479715Y-102941476D01*
X91527334Y-103131952D01*
X91527334Y-103274810D01*
X91479715Y-103465286D01*
X91432096Y-103560524D01*
X91336858Y-103655762D01*
X91194000Y-103703381D01*
X90955905Y-103703381D01*
X91860667Y-102703381D02*
X92527334Y-102703381D01*
X92098762Y-103703381D01*
X95908905Y-103703381D02*
X95908905Y-102703381D01*
X96147000Y-102703381D01*
X96289858Y-102751000D01*
X96385096Y-102846238D01*
X96432715Y-102941476D01*
X96480334Y-103131952D01*
X96480334Y-103274810D01*
X96432715Y-103465286D01*
X96385096Y-103560524D01*
X96289858Y-103655762D01*
X96147000Y-103703381D01*
X95908905Y-103703381D01*
X97051762Y-103131952D02*
X96956524Y-103084333D01*
X96908905Y-103036714D01*
X96861286Y-102941476D01*
X96861286Y-102893857D01*
X96908905Y-102798619D01*
X96956524Y-102751000D01*
X97051762Y-102703381D01*
X97242239Y-102703381D01*
X97337477Y-102751000D01*
X97385096Y-102798619D01*
X97432715Y-102893857D01*
X97432715Y-102941476D01*
X97385096Y-103036714D01*
X97337477Y-103084333D01*
X97242239Y-103131952D01*
X97051762Y-103131952D01*
X96956524Y-103179571D01*
X96908905Y-103227190D01*
X96861286Y-103322429D01*
X96861286Y-103512905D01*
X96908905Y-103608143D01*
X96956524Y-103655762D01*
X97051762Y-103703381D01*
X97242239Y-103703381D01*
X97337477Y-103655762D01*
X97385096Y-103608143D01*
X97432715Y-103512905D01*
X97432715Y-103322429D01*
X97385096Y-103227190D01*
X97337477Y-103179571D01*
X97242239Y-103131952D01*
X196413381Y-88717286D02*
X195413381Y-88717286D01*
X195413381Y-88479191D01*
X195461000Y-88336333D01*
X195556238Y-88241095D01*
X195651476Y-88193476D01*
X195841952Y-88145857D01*
X195984810Y-88145857D01*
X196175286Y-88193476D01*
X196270524Y-88241095D01*
X196365762Y-88336333D01*
X196413381Y-88479191D01*
X196413381Y-88717286D01*
X196413381Y-87193476D02*
X196413381Y-87764905D01*
X196413381Y-87479191D02*
X195413381Y-87479191D01*
X195556238Y-87574429D01*
X195651476Y-87669667D01*
X195699095Y-87764905D01*
X196413381Y-86241095D02*
X196413381Y-86812524D01*
X196413381Y-86526810D02*
X195413381Y-86526810D01*
X195556238Y-86622048D01*
X195651476Y-86717286D01*
X195699095Y-86812524D01*
X214066381Y-88844286D02*
X213066381Y-88844286D01*
X213066381Y-88606191D01*
X213114000Y-88463333D01*
X213209238Y-88368095D01*
X213304476Y-88320476D01*
X213494952Y-88272857D01*
X213637810Y-88272857D01*
X213828286Y-88320476D01*
X213923524Y-88368095D01*
X214018762Y-88463333D01*
X214066381Y-88606191D01*
X214066381Y-88844286D01*
X214066381Y-87320476D02*
X214066381Y-87891905D01*
X214066381Y-87606191D02*
X213066381Y-87606191D01*
X213209238Y-87701429D01*
X213304476Y-87796667D01*
X213352095Y-87891905D01*
X213161619Y-86939524D02*
X213114000Y-86891905D01*
X213066381Y-86796667D01*
X213066381Y-86558571D01*
X213114000Y-86463333D01*
X213161619Y-86415714D01*
X213256857Y-86368095D01*
X213352095Y-86368095D01*
X213494952Y-86415714D01*
X214066381Y-86987143D01*
X214066381Y-86368095D01*
X231846381Y-88844286D02*
X230846381Y-88844286D01*
X230846381Y-88606191D01*
X230894000Y-88463333D01*
X230989238Y-88368095D01*
X231084476Y-88320476D01*
X231274952Y-88272857D01*
X231417810Y-88272857D01*
X231608286Y-88320476D01*
X231703524Y-88368095D01*
X231798762Y-88463333D01*
X231846381Y-88606191D01*
X231846381Y-88844286D01*
X231846381Y-87320476D02*
X231846381Y-87891905D01*
X231846381Y-87606191D02*
X230846381Y-87606191D01*
X230989238Y-87701429D01*
X231084476Y-87796667D01*
X231132095Y-87891905D01*
X230846381Y-86987143D02*
X230846381Y-86368095D01*
X231227333Y-86701429D01*
X231227333Y-86558571D01*
X231274952Y-86463333D01*
X231322571Y-86415714D01*
X231417810Y-86368095D01*
X231655905Y-86368095D01*
X231751143Y-86415714D01*
X231798762Y-86463333D01*
X231846381Y-86558571D01*
X231846381Y-86844286D01*
X231798762Y-86939524D01*
X231751143Y-86987143D01*
X249118381Y-88844286D02*
X248118381Y-88844286D01*
X248118381Y-88606191D01*
X248166000Y-88463333D01*
X248261238Y-88368095D01*
X248356476Y-88320476D01*
X248546952Y-88272857D01*
X248689810Y-88272857D01*
X248880286Y-88320476D01*
X248975524Y-88368095D01*
X249070762Y-88463333D01*
X249118381Y-88606191D01*
X249118381Y-88844286D01*
X249118381Y-87320476D02*
X249118381Y-87891905D01*
X249118381Y-87606191D02*
X248118381Y-87606191D01*
X248261238Y-87701429D01*
X248356476Y-87796667D01*
X248404095Y-87891905D01*
X248451714Y-86463333D02*
X249118381Y-86463333D01*
X248070762Y-86701429D02*
X248785048Y-86939524D01*
X248785048Y-86320476D01*
X199318714Y-92908381D02*
X199318714Y-91908381D01*
X199556809Y-91908381D01*
X199699667Y-91956000D01*
X199794905Y-92051238D01*
X199842524Y-92146476D01*
X199890143Y-92336952D01*
X199890143Y-92479810D01*
X199842524Y-92670286D01*
X199794905Y-92765524D01*
X199699667Y-92860762D01*
X199556809Y-92908381D01*
X199318714Y-92908381D01*
X200842524Y-92908381D02*
X200271095Y-92908381D01*
X200556809Y-92908381D02*
X200556809Y-91908381D01*
X200461571Y-92051238D01*
X200366333Y-92146476D01*
X200271095Y-92194095D01*
X201318714Y-92908381D02*
X201509190Y-92908381D01*
X201604429Y-92860762D01*
X201652048Y-92813143D01*
X201747286Y-92670286D01*
X201794905Y-92479810D01*
X201794905Y-92098857D01*
X201747286Y-92003619D01*
X201699667Y-91956000D01*
X201604429Y-91908381D01*
X201413952Y-91908381D01*
X201318714Y-91956000D01*
X201271095Y-92003619D01*
X201223476Y-92098857D01*
X201223476Y-92336952D01*
X201271095Y-92432190D01*
X201318714Y-92479810D01*
X201413952Y-92527429D01*
X201604429Y-92527429D01*
X201699667Y-92479810D01*
X201747286Y-92432190D01*
X201794905Y-92336952D01*
X76120667Y-72350381D02*
X76120667Y-73064667D01*
X76073047Y-73207524D01*
X75977809Y-73302762D01*
X75834952Y-73350381D01*
X75739714Y-73350381D01*
X77120667Y-73350381D02*
X76549238Y-73350381D01*
X76834952Y-73350381D02*
X76834952Y-72350381D01*
X76739714Y-72493238D01*
X76644476Y-72588476D01*
X76549238Y-72636095D01*
X116506667Y-72350381D02*
X116506667Y-73064667D01*
X116459047Y-73207524D01*
X116363809Y-73302762D01*
X116220952Y-73350381D01*
X116125714Y-73350381D01*
X116935238Y-72445619D02*
X116982857Y-72398000D01*
X117078095Y-72350381D01*
X117316191Y-72350381D01*
X117411429Y-72398000D01*
X117459048Y-72445619D01*
X117506667Y-72540857D01*
X117506667Y-72636095D01*
X117459048Y-72778952D01*
X116887619Y-73350381D01*
X117506667Y-73350381D01*
X60626667Y-72350381D02*
X60626667Y-73064667D01*
X60579047Y-73207524D01*
X60483809Y-73302762D01*
X60340952Y-73350381D01*
X60245714Y-73350381D01*
X61007619Y-72350381D02*
X61626667Y-72350381D01*
X61293333Y-72731333D01*
X61436191Y-72731333D01*
X61531429Y-72778952D01*
X61579048Y-72826571D01*
X61626667Y-72921810D01*
X61626667Y-73159905D01*
X61579048Y-73255143D01*
X61531429Y-73302762D01*
X61436191Y-73350381D01*
X61150476Y-73350381D01*
X61055238Y-73302762D01*
X61007619Y-73255143D01*
X206930667Y-72350381D02*
X206930667Y-73064667D01*
X206883047Y-73207524D01*
X206787809Y-73302762D01*
X206644952Y-73350381D01*
X206549714Y-73350381D01*
X207835429Y-72683714D02*
X207835429Y-73350381D01*
X207597333Y-72302762D02*
X207359238Y-73017048D01*
X207978286Y-73017048D01*
X152574667Y-72350381D02*
X152574667Y-73064667D01*
X152527047Y-73207524D01*
X152431809Y-73302762D01*
X152288952Y-73350381D01*
X152193714Y-73350381D01*
X153527048Y-72350381D02*
X153050857Y-72350381D01*
X153003238Y-72826571D01*
X153050857Y-72778952D01*
X153146095Y-72731333D01*
X153384191Y-72731333D01*
X153479429Y-72778952D01*
X153527048Y-72826571D01*
X153574667Y-72921810D01*
X153574667Y-73159905D01*
X153527048Y-73255143D01*
X153479429Y-73302762D01*
X153384191Y-73350381D01*
X153146095Y-73350381D01*
X153050857Y-73302762D01*
X153003238Y-73255143D01*
X192833667Y-116673381D02*
X192833667Y-117387667D01*
X192786047Y-117530524D01*
X192690809Y-117625762D01*
X192547952Y-117673381D01*
X192452714Y-117673381D01*
X193738429Y-116673381D02*
X193547952Y-116673381D01*
X193452714Y-116721000D01*
X193405095Y-116768619D01*
X193309857Y-116911476D01*
X193262238Y-117101952D01*
X193262238Y-117482905D01*
X193309857Y-117578143D01*
X193357476Y-117625762D01*
X193452714Y-117673381D01*
X193643191Y-117673381D01*
X193738429Y-117625762D01*
X193786048Y-117578143D01*
X193833667Y-117482905D01*
X193833667Y-117244810D01*
X193786048Y-117149571D01*
X193738429Y-117101952D01*
X193643191Y-117054333D01*
X193452714Y-117054333D01*
X193357476Y-117101952D01*
X193309857Y-117149571D01*
X193262238Y-117244810D01*
X210613667Y-116673381D02*
X210613667Y-117387667D01*
X210566047Y-117530524D01*
X210470809Y-117625762D01*
X210327952Y-117673381D01*
X210232714Y-117673381D01*
X210994619Y-116673381D02*
X211661286Y-116673381D01*
X211232714Y-117673381D01*
X228012667Y-116673381D02*
X228012667Y-117387667D01*
X227965047Y-117530524D01*
X227869809Y-117625762D01*
X227726952Y-117673381D01*
X227631714Y-117673381D01*
X228631714Y-117101952D02*
X228536476Y-117054333D01*
X228488857Y-117006714D01*
X228441238Y-116911476D01*
X228441238Y-116863857D01*
X228488857Y-116768619D01*
X228536476Y-116721000D01*
X228631714Y-116673381D01*
X228822191Y-116673381D01*
X228917429Y-116721000D01*
X228965048Y-116768619D01*
X229012667Y-116863857D01*
X229012667Y-116911476D01*
X228965048Y-117006714D01*
X228917429Y-117054333D01*
X228822191Y-117101952D01*
X228631714Y-117101952D01*
X228536476Y-117149571D01*
X228488857Y-117197190D01*
X228441238Y-117292429D01*
X228441238Y-117482905D01*
X228488857Y-117578143D01*
X228536476Y-117625762D01*
X228631714Y-117673381D01*
X228822191Y-117673381D01*
X228917429Y-117625762D01*
X228965048Y-117578143D01*
X229012667Y-117482905D01*
X229012667Y-117292429D01*
X228965048Y-117197190D01*
X228917429Y-117149571D01*
X228822191Y-117101952D01*
X245665667Y-116673381D02*
X245665667Y-117387667D01*
X245618047Y-117530524D01*
X245522809Y-117625762D01*
X245379952Y-117673381D01*
X245284714Y-117673381D01*
X246189476Y-117673381D02*
X246379952Y-117673381D01*
X246475191Y-117625762D01*
X246522810Y-117578143D01*
X246618048Y-117435286D01*
X246665667Y-117244810D01*
X246665667Y-116863857D01*
X246618048Y-116768619D01*
X246570429Y-116721000D01*
X246475191Y-116673381D01*
X246284714Y-116673381D01*
X246189476Y-116721000D01*
X246141857Y-116768619D01*
X246094238Y-116863857D01*
X246094238Y-117101952D01*
X246141857Y-117197190D01*
X246189476Y-117244810D01*
X246284714Y-117292429D01*
X246475191Y-117292429D01*
X246570429Y-117244810D01*
X246618048Y-117197190D01*
X246665667Y-117101952D01*
X149812477Y-122007381D02*
X149812477Y-122721667D01*
X149764857Y-122864524D01*
X149669619Y-122959762D01*
X149526762Y-123007381D01*
X149431524Y-123007381D01*
X150812477Y-123007381D02*
X150241048Y-123007381D01*
X150526762Y-123007381D02*
X150526762Y-122007381D01*
X150431524Y-122150238D01*
X150336286Y-122245476D01*
X150241048Y-122293095D01*
X151431524Y-122007381D02*
X151526763Y-122007381D01*
X151622001Y-122055000D01*
X151669620Y-122102619D01*
X151717239Y-122197857D01*
X151764858Y-122388333D01*
X151764858Y-122626429D01*
X151717239Y-122816905D01*
X151669620Y-122912143D01*
X151622001Y-122959762D01*
X151526763Y-123007381D01*
X151431524Y-123007381D01*
X151336286Y-122959762D01*
X151288667Y-122912143D01*
X151241048Y-122816905D01*
X151193429Y-122626429D01*
X151193429Y-122388333D01*
X151241048Y-122197857D01*
X151288667Y-122102619D01*
X151336286Y-122055000D01*
X151431524Y-122007381D01*
X69778667Y-76922381D02*
X69778667Y-77636667D01*
X69731047Y-77779524D01*
X69635809Y-77874762D01*
X69492952Y-77922381D01*
X69397714Y-77922381D01*
X70254857Y-77922381D02*
X70254857Y-76922381D01*
X70635810Y-76922381D01*
X70731048Y-76970000D01*
X70778667Y-77017619D01*
X70826286Y-77112857D01*
X70826286Y-77255714D01*
X70778667Y-77350952D01*
X70731048Y-77398571D01*
X70635810Y-77446190D01*
X70254857Y-77446190D01*
X71778667Y-77922381D02*
X71207238Y-77922381D01*
X71492952Y-77922381D02*
X71492952Y-76922381D01*
X71397714Y-77065238D01*
X71302476Y-77160476D01*
X71207238Y-77208095D01*
X65206667Y-76922381D02*
X65206667Y-77636667D01*
X65159047Y-77779524D01*
X65063809Y-77874762D01*
X64920952Y-77922381D01*
X64825714Y-77922381D01*
X65682857Y-77922381D02*
X65682857Y-76922381D01*
X66063810Y-76922381D01*
X66159048Y-76970000D01*
X66206667Y-77017619D01*
X66254286Y-77112857D01*
X66254286Y-77255714D01*
X66206667Y-77350952D01*
X66159048Y-77398571D01*
X66063810Y-77446190D01*
X65682857Y-77446190D01*
X66635238Y-77017619D02*
X66682857Y-76970000D01*
X66778095Y-76922381D01*
X67016191Y-76922381D01*
X67111429Y-76970000D01*
X67159048Y-77017619D01*
X67206667Y-77112857D01*
X67206667Y-77208095D01*
X67159048Y-77350952D01*
X66587619Y-77922381D01*
X67206667Y-77922381D01*
X184935905Y-117419381D02*
X184935905Y-116419381D01*
X185507334Y-117419381D02*
X185078762Y-116847952D01*
X185507334Y-116419381D02*
X184935905Y-116990810D01*
X186459715Y-117419381D02*
X185888286Y-117419381D01*
X186174000Y-117419381D02*
X186174000Y-116419381D01*
X186078762Y-116562238D01*
X185983524Y-116657476D01*
X185888286Y-116705095D01*
X202461905Y-117419381D02*
X202461905Y-116419381D01*
X203033334Y-117419381D02*
X202604762Y-116847952D01*
X203033334Y-116419381D02*
X202461905Y-116990810D01*
X203414286Y-116514619D02*
X203461905Y-116467000D01*
X203557143Y-116419381D01*
X203795239Y-116419381D01*
X203890477Y-116467000D01*
X203938096Y-116514619D01*
X203985715Y-116609857D01*
X203985715Y-116705095D01*
X203938096Y-116847952D01*
X203366667Y-117419381D01*
X203985715Y-117419381D01*
X219987905Y-117292381D02*
X219987905Y-116292381D01*
X220559334Y-117292381D02*
X220130762Y-116720952D01*
X220559334Y-116292381D02*
X219987905Y-116863810D01*
X220892667Y-116292381D02*
X221511715Y-116292381D01*
X221178381Y-116673333D01*
X221321239Y-116673333D01*
X221416477Y-116720952D01*
X221464096Y-116768571D01*
X221511715Y-116863810D01*
X221511715Y-117101905D01*
X221464096Y-117197143D01*
X221416477Y-117244762D01*
X221321239Y-117292381D01*
X221035524Y-117292381D01*
X220940286Y-117244762D01*
X220892667Y-117197143D01*
X237513905Y-117292381D02*
X237513905Y-116292381D01*
X238085334Y-117292381D02*
X237656762Y-116720952D01*
X238085334Y-116292381D02*
X237513905Y-116863810D01*
X238942477Y-116625714D02*
X238942477Y-117292381D01*
X238704381Y-116244762D02*
X238466286Y-116959048D01*
X239085334Y-116959048D01*
X195357762Y-85002619D02*
X195262524Y-84955000D01*
X195167286Y-84859762D01*
X195024429Y-84716905D01*
X194929190Y-84669286D01*
X194833952Y-84669286D01*
X194881571Y-84907381D02*
X194786333Y-84859762D01*
X194691095Y-84764524D01*
X194643476Y-84574048D01*
X194643476Y-84240714D01*
X194691095Y-84050238D01*
X194786333Y-83955000D01*
X194881571Y-83907381D01*
X195072048Y-83907381D01*
X195167286Y-83955000D01*
X195262524Y-84050238D01*
X195310143Y-84240714D01*
X195310143Y-84574048D01*
X195262524Y-84764524D01*
X195167286Y-84859762D01*
X195072048Y-84907381D01*
X194881571Y-84907381D01*
X196262524Y-84907381D02*
X195691095Y-84907381D01*
X195976809Y-84907381D02*
X195976809Y-83907381D01*
X195881571Y-84050238D01*
X195786333Y-84145476D01*
X195691095Y-84193095D01*
X212629762Y-85002619D02*
X212534524Y-84955000D01*
X212439286Y-84859762D01*
X212296429Y-84716905D01*
X212201190Y-84669286D01*
X212105952Y-84669286D01*
X212153571Y-84907381D02*
X212058333Y-84859762D01*
X211963095Y-84764524D01*
X211915476Y-84574048D01*
X211915476Y-84240714D01*
X211963095Y-84050238D01*
X212058333Y-83955000D01*
X212153571Y-83907381D01*
X212344048Y-83907381D01*
X212439286Y-83955000D01*
X212534524Y-84050238D01*
X212582143Y-84240714D01*
X212582143Y-84574048D01*
X212534524Y-84764524D01*
X212439286Y-84859762D01*
X212344048Y-84907381D01*
X212153571Y-84907381D01*
X212915476Y-83907381D02*
X213534524Y-83907381D01*
X213201190Y-84288333D01*
X213344048Y-84288333D01*
X213439286Y-84335952D01*
X213486905Y-84383571D01*
X213534524Y-84478810D01*
X213534524Y-84716905D01*
X213486905Y-84812143D01*
X213439286Y-84859762D01*
X213344048Y-84907381D01*
X213058333Y-84907381D01*
X212963095Y-84859762D01*
X212915476Y-84812143D01*
X230155762Y-85002619D02*
X230060524Y-84955000D01*
X229965286Y-84859762D01*
X229822429Y-84716905D01*
X229727190Y-84669286D01*
X229631952Y-84669286D01*
X229679571Y-84907381D02*
X229584333Y-84859762D01*
X229489095Y-84764524D01*
X229441476Y-84574048D01*
X229441476Y-84240714D01*
X229489095Y-84050238D01*
X229584333Y-83955000D01*
X229679571Y-83907381D01*
X229870048Y-83907381D01*
X229965286Y-83955000D01*
X230060524Y-84050238D01*
X230108143Y-84240714D01*
X230108143Y-84574048D01*
X230060524Y-84764524D01*
X229965286Y-84859762D01*
X229870048Y-84907381D01*
X229679571Y-84907381D01*
X231012905Y-83907381D02*
X230536714Y-83907381D01*
X230489095Y-84383571D01*
X230536714Y-84335952D01*
X230631952Y-84288333D01*
X230870048Y-84288333D01*
X230965286Y-84335952D01*
X231012905Y-84383571D01*
X231060524Y-84478810D01*
X231060524Y-84716905D01*
X231012905Y-84812143D01*
X230965286Y-84859762D01*
X230870048Y-84907381D01*
X230631952Y-84907381D01*
X230536714Y-84859762D01*
X230489095Y-84812143D01*
X247681762Y-85002619D02*
X247586524Y-84955000D01*
X247491286Y-84859762D01*
X247348429Y-84716905D01*
X247253190Y-84669286D01*
X247157952Y-84669286D01*
X247205571Y-84907381D02*
X247110333Y-84859762D01*
X247015095Y-84764524D01*
X246967476Y-84574048D01*
X246967476Y-84240714D01*
X247015095Y-84050238D01*
X247110333Y-83955000D01*
X247205571Y-83907381D01*
X247396048Y-83907381D01*
X247491286Y-83955000D01*
X247586524Y-84050238D01*
X247634143Y-84240714D01*
X247634143Y-84574048D01*
X247586524Y-84764524D01*
X247491286Y-84859762D01*
X247396048Y-84907381D01*
X247205571Y-84907381D01*
X247967476Y-83907381D02*
X248634143Y-83907381D01*
X248205571Y-84907381D01*
X81367334Y-78684381D02*
X81034000Y-78208190D01*
X80795905Y-78684381D02*
X80795905Y-77684381D01*
X81176858Y-77684381D01*
X81272096Y-77732000D01*
X81319715Y-77779619D01*
X81367334Y-77874857D01*
X81367334Y-78017714D01*
X81319715Y-78112952D01*
X81272096Y-78160571D01*
X81176858Y-78208190D01*
X80795905Y-78208190D01*
X82319715Y-78684381D02*
X81748286Y-78684381D01*
X82034000Y-78684381D02*
X82034000Y-77684381D01*
X81938762Y-77827238D01*
X81843524Y-77922476D01*
X81748286Y-77970095D01*
X63444381Y-118276666D02*
X62968190Y-118610000D01*
X63444381Y-118848095D02*
X62444381Y-118848095D01*
X62444381Y-118467142D01*
X62492000Y-118371904D01*
X62539619Y-118324285D01*
X62634857Y-118276666D01*
X62777714Y-118276666D01*
X62872952Y-118324285D01*
X62920571Y-118371904D01*
X62968190Y-118467142D01*
X62968190Y-118848095D01*
X62444381Y-117371904D02*
X62444381Y-117848095D01*
X62920571Y-117895714D01*
X62872952Y-117848095D01*
X62825333Y-117752857D01*
X62825333Y-117514761D01*
X62872952Y-117419523D01*
X62920571Y-117371904D01*
X63015810Y-117324285D01*
X63253905Y-117324285D01*
X63349143Y-117371904D01*
X63396762Y-117419523D01*
X63444381Y-117514761D01*
X63444381Y-117752857D01*
X63396762Y-117848095D01*
X63349143Y-117895714D01*
X58364381Y-118276666D02*
X57888190Y-118610000D01*
X58364381Y-118848095D02*
X57364381Y-118848095D01*
X57364381Y-118467142D01*
X57412000Y-118371904D01*
X57459619Y-118324285D01*
X57554857Y-118276666D01*
X57697714Y-118276666D01*
X57792952Y-118324285D01*
X57840571Y-118371904D01*
X57888190Y-118467142D01*
X57888190Y-118848095D01*
X57364381Y-117419523D02*
X57364381Y-117610000D01*
X57412000Y-117705238D01*
X57459619Y-117752857D01*
X57602476Y-117848095D01*
X57792952Y-117895714D01*
X58173905Y-117895714D01*
X58269143Y-117848095D01*
X58316762Y-117800476D01*
X58364381Y-117705238D01*
X58364381Y-117514761D01*
X58316762Y-117419523D01*
X58269143Y-117371904D01*
X58173905Y-117324285D01*
X57935810Y-117324285D01*
X57840571Y-117371904D01*
X57792952Y-117419523D01*
X57745333Y-117514761D01*
X57745333Y-117705238D01*
X57792952Y-117800476D01*
X57840571Y-117848095D01*
X57935810Y-117895714D01*
X53284381Y-118276666D02*
X52808190Y-118610000D01*
X53284381Y-118848095D02*
X52284381Y-118848095D01*
X52284381Y-118467142D01*
X52332000Y-118371904D01*
X52379619Y-118324285D01*
X52474857Y-118276666D01*
X52617714Y-118276666D01*
X52712952Y-118324285D01*
X52760571Y-118371904D01*
X52808190Y-118467142D01*
X52808190Y-118848095D01*
X52284381Y-117943333D02*
X52284381Y-117276666D01*
X53284381Y-117705238D01*
X48712381Y-118276666D02*
X48236190Y-118610000D01*
X48712381Y-118848095D02*
X47712381Y-118848095D01*
X47712381Y-118467142D01*
X47760000Y-118371904D01*
X47807619Y-118324285D01*
X47902857Y-118276666D01*
X48045714Y-118276666D01*
X48140952Y-118324285D01*
X48188571Y-118371904D01*
X48236190Y-118467142D01*
X48236190Y-118848095D01*
X48140952Y-117705238D02*
X48093333Y-117800476D01*
X48045714Y-117848095D01*
X47950476Y-117895714D01*
X47902857Y-117895714D01*
X47807619Y-117848095D01*
X47760000Y-117800476D01*
X47712381Y-117705238D01*
X47712381Y-117514761D01*
X47760000Y-117419523D01*
X47807619Y-117371904D01*
X47902857Y-117324285D01*
X47950476Y-117324285D01*
X48045714Y-117371904D01*
X48093333Y-117419523D01*
X48140952Y-117514761D01*
X48140952Y-117705238D01*
X48188571Y-117800476D01*
X48236190Y-117848095D01*
X48331429Y-117895714D01*
X48521905Y-117895714D01*
X48617143Y-117848095D01*
X48664762Y-117800476D01*
X48712381Y-117705238D01*
X48712381Y-117514761D01*
X48664762Y-117419523D01*
X48617143Y-117371904D01*
X48521905Y-117324285D01*
X48331429Y-117324285D01*
X48236190Y-117371904D01*
X48188571Y-117419523D01*
X48140952Y-117514761D01*
X192651143Y-78618381D02*
X192317809Y-78142190D01*
X192079714Y-78618381D02*
X192079714Y-77618381D01*
X192460667Y-77618381D01*
X192555905Y-77666000D01*
X192603524Y-77713619D01*
X192651143Y-77808857D01*
X192651143Y-77951714D01*
X192603524Y-78046952D01*
X192555905Y-78094571D01*
X192460667Y-78142190D01*
X192079714Y-78142190D01*
X193603524Y-78618381D02*
X193032095Y-78618381D01*
X193317809Y-78618381D02*
X193317809Y-77618381D01*
X193222571Y-77761238D01*
X193127333Y-77856476D01*
X193032095Y-77904095D01*
X193936857Y-77618381D02*
X194603524Y-77618381D01*
X194174952Y-78618381D01*
X77557381Y-110997905D02*
X78366905Y-110997905D01*
X78462143Y-110950286D01*
X78509762Y-110902667D01*
X78557381Y-110807429D01*
X78557381Y-110616952D01*
X78509762Y-110521714D01*
X78462143Y-110474095D01*
X78366905Y-110426476D01*
X77557381Y-110426476D01*
X78557381Y-109426476D02*
X78557381Y-109997905D01*
X78557381Y-109712191D02*
X77557381Y-109712191D01*
X77700238Y-109807429D01*
X77795476Y-109902667D01*
X77843095Y-109997905D01*
X88352381Y-110997905D02*
X89161905Y-110997905D01*
X89257143Y-110950286D01*
X89304762Y-110902667D01*
X89352381Y-110807429D01*
X89352381Y-110616952D01*
X89304762Y-110521714D01*
X89257143Y-110474095D01*
X89161905Y-110426476D01*
X88352381Y-110426476D01*
X88447619Y-109997905D02*
X88400000Y-109950286D01*
X88352381Y-109855048D01*
X88352381Y-109616952D01*
X88400000Y-109521714D01*
X88447619Y-109474095D01*
X88542857Y-109426476D01*
X88638095Y-109426476D01*
X88780952Y-109474095D01*
X89352381Y-110045524D01*
X89352381Y-109426476D01*
X99274381Y-110997905D02*
X100083905Y-110997905D01*
X100179143Y-110950286D01*
X100226762Y-110902667D01*
X100274381Y-110807429D01*
X100274381Y-110616952D01*
X100226762Y-110521714D01*
X100179143Y-110474095D01*
X100083905Y-110426476D01*
X99274381Y-110426476D01*
X99274381Y-110045524D02*
X99274381Y-109426476D01*
X99655333Y-109759810D01*
X99655333Y-109616952D01*
X99702952Y-109521714D01*
X99750571Y-109474095D01*
X99845810Y-109426476D01*
X100083905Y-109426476D01*
X100179143Y-109474095D01*
X100226762Y-109521714D01*
X100274381Y-109616952D01*
X100274381Y-109902667D01*
X100226762Y-109997905D01*
X100179143Y-110045524D01*
X110577381Y-110997905D02*
X111386905Y-110997905D01*
X111482143Y-110950286D01*
X111529762Y-110902667D01*
X111577381Y-110807429D01*
X111577381Y-110616952D01*
X111529762Y-110521714D01*
X111482143Y-110474095D01*
X111386905Y-110426476D01*
X110577381Y-110426476D01*
X110910714Y-109521714D02*
X111577381Y-109521714D01*
X110529762Y-109759810D02*
X111244048Y-109997905D01*
X111244048Y-109378857D01*
X121412095Y-121626381D02*
X121412095Y-122435905D01*
X121459714Y-122531143D01*
X121507333Y-122578762D01*
X121602571Y-122626381D01*
X121793048Y-122626381D01*
X121888286Y-122578762D01*
X121935905Y-122531143D01*
X121983524Y-122435905D01*
X121983524Y-121626381D01*
X122935905Y-121626381D02*
X122459714Y-121626381D01*
X122412095Y-122102571D01*
X122459714Y-122054952D01*
X122554952Y-122007333D01*
X122793048Y-122007333D01*
X122888286Y-122054952D01*
X122935905Y-122102571D01*
X122983524Y-122197810D01*
X122983524Y-122435905D01*
X122935905Y-122531143D01*
X122888286Y-122578762D01*
X122793048Y-122626381D01*
X122554952Y-122626381D01*
X122459714Y-122578762D01*
X122412095Y-122531143D01*
X137795095Y-121499381D02*
X137795095Y-122308905D01*
X137842714Y-122404143D01*
X137890333Y-122451762D01*
X137985571Y-122499381D01*
X138176048Y-122499381D01*
X138271286Y-122451762D01*
X138318905Y-122404143D01*
X138366524Y-122308905D01*
X138366524Y-121499381D01*
X139271286Y-121499381D02*
X139080809Y-121499381D01*
X138985571Y-121547000D01*
X138937952Y-121594619D01*
X138842714Y-121737476D01*
X138795095Y-121927952D01*
X138795095Y-122308905D01*
X138842714Y-122404143D01*
X138890333Y-122451762D01*
X138985571Y-122499381D01*
X139176048Y-122499381D01*
X139271286Y-122451762D01*
X139318905Y-122404143D01*
X139366524Y-122308905D01*
X139366524Y-122070810D01*
X139318905Y-121975571D01*
X139271286Y-121927952D01*
X139176048Y-121880333D01*
X138985571Y-121880333D01*
X138890333Y-121927952D01*
X138842714Y-121975571D01*
X138795095Y-122070810D01*
X45521714Y-87320381D02*
X45521714Y-86320381D01*
X45759809Y-86320381D01*
X45902667Y-86368000D01*
X45997905Y-86463238D01*
X46045524Y-86558476D01*
X46093143Y-86748952D01*
X46093143Y-86891810D01*
X46045524Y-87082286D01*
X45997905Y-87177524D01*
X45902667Y-87272762D01*
X45759809Y-87320381D01*
X45521714Y-87320381D01*
X47045524Y-87320381D02*
X46474095Y-87320381D01*
X46759809Y-87320381D02*
X46759809Y-86320381D01*
X46664571Y-86463238D01*
X46569333Y-86558476D01*
X46474095Y-86606095D01*
X47664571Y-86320381D02*
X47759810Y-86320381D01*
X47855048Y-86368000D01*
X47902667Y-86415619D01*
X47950286Y-86510857D01*
X47997905Y-86701333D01*
X47997905Y-86939429D01*
X47950286Y-87129905D01*
X47902667Y-87225143D01*
X47855048Y-87272762D01*
X47759810Y-87320381D01*
X47664571Y-87320381D01*
X47569333Y-87272762D01*
X47521714Y-87225143D01*
X47474095Y-87129905D01*
X47426476Y-86939429D01*
X47426476Y-86701333D01*
X47474095Y-86510857D01*
X47521714Y-86415619D01*
X47569333Y-86368000D01*
X47664571Y-86320381D01*
X136517143Y-78811381D02*
X136183809Y-78335190D01*
X135945714Y-78811381D02*
X135945714Y-77811381D01*
X136326667Y-77811381D01*
X136421905Y-77859000D01*
X136469524Y-77906619D01*
X136517143Y-78001857D01*
X136517143Y-78144714D01*
X136469524Y-78239952D01*
X136421905Y-78287571D01*
X136326667Y-78335190D01*
X135945714Y-78335190D01*
X137469524Y-78811381D02*
X136898095Y-78811381D01*
X137183809Y-78811381D02*
X137183809Y-77811381D01*
X137088571Y-77954238D01*
X136993333Y-78049476D01*
X136898095Y-78097095D01*
X138326667Y-77811381D02*
X138136190Y-77811381D01*
X138040952Y-77859000D01*
X137993333Y-77906619D01*
X137898095Y-78049476D01*
X137850476Y-78239952D01*
X137850476Y-78620905D01*
X137898095Y-78716143D01*
X137945714Y-78763762D01*
X138040952Y-78811381D01*
X138231429Y-78811381D01*
X138326667Y-78763762D01*
X138374286Y-78716143D01*
X138421905Y-78620905D01*
X138421905Y-78382810D01*
X138374286Y-78287571D01*
X138326667Y-78239952D01*
X138231429Y-78192333D01*
X138040952Y-78192333D01*
X137945714Y-78239952D01*
X137898095Y-78287571D01*
X137850476Y-78382810D01*
X56602334Y-81891143D02*
X56554715Y-81938762D01*
X56411858Y-81986381D01*
X56316620Y-81986381D01*
X56173762Y-81938762D01*
X56078524Y-81843524D01*
X56030905Y-81748286D01*
X55983286Y-81557810D01*
X55983286Y-81414952D01*
X56030905Y-81224476D01*
X56078524Y-81129238D01*
X56173762Y-81034000D01*
X56316620Y-80986381D01*
X56411858Y-80986381D01*
X56554715Y-81034000D01*
X56602334Y-81081619D01*
X57459477Y-81319714D02*
X57459477Y-81986381D01*
X57221381Y-80938762D02*
X56983286Y-81653048D01*
X57602334Y-81653048D01*
X70635905Y-81351381D02*
X70635905Y-80351381D01*
X70874000Y-80351381D01*
X71016858Y-80399000D01*
X71112096Y-80494238D01*
X71159715Y-80589476D01*
X71207334Y-80779952D01*
X71207334Y-80922810D01*
X71159715Y-81113286D01*
X71112096Y-81208524D01*
X71016858Y-81303762D01*
X70874000Y-81351381D01*
X70635905Y-81351381D01*
X71588286Y-80446619D02*
X71635905Y-80399000D01*
X71731143Y-80351381D01*
X71969239Y-80351381D01*
X72064477Y-80399000D01*
X72112096Y-80446619D01*
X72159715Y-80541857D01*
X72159715Y-80637095D01*
X72112096Y-80779952D01*
X71540667Y-81351381D01*
X72159715Y-81351381D01*
X106195905Y-81351381D02*
X106195905Y-80351381D01*
X106434000Y-80351381D01*
X106576858Y-80399000D01*
X106672096Y-80494238D01*
X106719715Y-80589476D01*
X106767334Y-80779952D01*
X106767334Y-80922810D01*
X106719715Y-81113286D01*
X106672096Y-81208524D01*
X106576858Y-81303762D01*
X106434000Y-81351381D01*
X106195905Y-81351381D01*
X107100667Y-80351381D02*
X107719715Y-80351381D01*
X107386381Y-80732333D01*
X107529239Y-80732333D01*
X107624477Y-80779952D01*
X107672096Y-80827571D01*
X107719715Y-80922810D01*
X107719715Y-81160905D01*
X107672096Y-81256143D01*
X107624477Y-81303762D01*
X107529239Y-81351381D01*
X107243524Y-81351381D01*
X107148286Y-81303762D01*
X107100667Y-81256143D01*
X101115905Y-81351381D02*
X101115905Y-80351381D01*
X101354000Y-80351381D01*
X101496858Y-80399000D01*
X101592096Y-80494238D01*
X101639715Y-80589476D01*
X101687334Y-80779952D01*
X101687334Y-80922810D01*
X101639715Y-81113286D01*
X101592096Y-81208524D01*
X101496858Y-81303762D01*
X101354000Y-81351381D01*
X101115905Y-81351381D01*
X102544477Y-80684714D02*
X102544477Y-81351381D01*
X102306381Y-80303762D02*
X102068286Y-81018048D01*
X102687334Y-81018048D01*
X45108905Y-78811381D02*
X45108905Y-77811381D01*
X45347000Y-77811381D01*
X45489858Y-77859000D01*
X45585096Y-77954238D01*
X45632715Y-78049476D01*
X45680334Y-78239952D01*
X45680334Y-78382810D01*
X45632715Y-78573286D01*
X45585096Y-78668524D01*
X45489858Y-78763762D01*
X45347000Y-78811381D01*
X45108905Y-78811381D01*
X46156524Y-78811381D02*
X46347000Y-78811381D01*
X46442239Y-78763762D01*
X46489858Y-78716143D01*
X46585096Y-78573286D01*
X46632715Y-78382810D01*
X46632715Y-78001857D01*
X46585096Y-77906619D01*
X46537477Y-77859000D01*
X46442239Y-77811381D01*
X46251762Y-77811381D01*
X46156524Y-77859000D01*
X46108905Y-77906619D01*
X46061286Y-78001857D01*
X46061286Y-78239952D01*
X46108905Y-78335190D01*
X46156524Y-78382810D01*
X46251762Y-78430429D01*
X46442239Y-78430429D01*
X46537477Y-78382810D01*
X46585096Y-78335190D01*
X46632715Y-78239952D01*
X86447334Y-78684381D02*
X86114000Y-78208190D01*
X85875905Y-78684381D02*
X85875905Y-77684381D01*
X86256858Y-77684381D01*
X86352096Y-77732000D01*
X86399715Y-77779619D01*
X86447334Y-77874857D01*
X86447334Y-78017714D01*
X86399715Y-78112952D01*
X86352096Y-78160571D01*
X86256858Y-78208190D01*
X85875905Y-78208190D01*
X86828286Y-77779619D02*
X86875905Y-77732000D01*
X86971143Y-77684381D01*
X87209239Y-77684381D01*
X87304477Y-77732000D01*
X87352096Y-77779619D01*
X87399715Y-77874857D01*
X87399715Y-77970095D01*
X87352096Y-78112952D01*
X86780667Y-78684381D01*
X87399715Y-78684381D01*
X91527334Y-78557381D02*
X91194000Y-78081190D01*
X90955905Y-78557381D02*
X90955905Y-77557381D01*
X91336858Y-77557381D01*
X91432096Y-77605000D01*
X91479715Y-77652619D01*
X91527334Y-77747857D01*
X91527334Y-77890714D01*
X91479715Y-77985952D01*
X91432096Y-78033571D01*
X91336858Y-78081190D01*
X90955905Y-78081190D01*
X91860667Y-77557381D02*
X92479715Y-77557381D01*
X92146381Y-77938333D01*
X92289239Y-77938333D01*
X92384477Y-77985952D01*
X92432096Y-78033571D01*
X92479715Y-78128810D01*
X92479715Y-78366905D01*
X92432096Y-78462143D01*
X92384477Y-78509762D01*
X92289239Y-78557381D01*
X92003524Y-78557381D01*
X91908286Y-78509762D01*
X91860667Y-78462143D01*
X96607334Y-78557381D02*
X96274000Y-78081190D01*
X96035905Y-78557381D02*
X96035905Y-77557381D01*
X96416858Y-77557381D01*
X96512096Y-77605000D01*
X96559715Y-77652619D01*
X96607334Y-77747857D01*
X96607334Y-77890714D01*
X96559715Y-77985952D01*
X96512096Y-78033571D01*
X96416858Y-78081190D01*
X96035905Y-78081190D01*
X97464477Y-77890714D02*
X97464477Y-78557381D01*
X97226381Y-77509762D02*
X96988286Y-78224048D01*
X97607334Y-78224048D01*
X46347143Y-96972381D02*
X46013809Y-96496190D01*
X45775714Y-96972381D02*
X45775714Y-95972381D01*
X46156667Y-95972381D01*
X46251905Y-96020000D01*
X46299524Y-96067619D01*
X46347143Y-96162857D01*
X46347143Y-96305714D01*
X46299524Y-96400952D01*
X46251905Y-96448571D01*
X46156667Y-96496190D01*
X45775714Y-96496190D01*
X46728095Y-96067619D02*
X46775714Y-96020000D01*
X46870952Y-95972381D01*
X47109048Y-95972381D01*
X47204286Y-96020000D01*
X47251905Y-96067619D01*
X47299524Y-96162857D01*
X47299524Y-96258095D01*
X47251905Y-96400952D01*
X46680476Y-96972381D01*
X47299524Y-96972381D01*
X48251905Y-96972381D02*
X47680476Y-96972381D01*
X47966190Y-96972381D02*
X47966190Y-95972381D01*
X47870952Y-96115238D01*
X47775714Y-96210476D01*
X47680476Y-96258095D01*
X216717714Y-92908381D02*
X216717714Y-91908381D01*
X216955809Y-91908381D01*
X217098667Y-91956000D01*
X217193905Y-92051238D01*
X217241524Y-92146476D01*
X217289143Y-92336952D01*
X217289143Y-92479810D01*
X217241524Y-92670286D01*
X217193905Y-92765524D01*
X217098667Y-92860762D01*
X216955809Y-92908381D01*
X216717714Y-92908381D01*
X217670095Y-92003619D02*
X217717714Y-91956000D01*
X217812952Y-91908381D01*
X218051048Y-91908381D01*
X218146286Y-91956000D01*
X218193905Y-92003619D01*
X218241524Y-92098857D01*
X218241524Y-92194095D01*
X218193905Y-92336952D01*
X217622476Y-92908381D01*
X218241524Y-92908381D01*
X218860571Y-91908381D02*
X218955810Y-91908381D01*
X219051048Y-91956000D01*
X219098667Y-92003619D01*
X219146286Y-92098857D01*
X219193905Y-92289333D01*
X219193905Y-92527429D01*
X219146286Y-92717905D01*
X219098667Y-92813143D01*
X219051048Y-92860762D01*
X218955810Y-92908381D01*
X218860571Y-92908381D01*
X218765333Y-92860762D01*
X218717714Y-92813143D01*
X218670095Y-92717905D01*
X218622476Y-92527429D01*
X218622476Y-92289333D01*
X218670095Y-92098857D01*
X218717714Y-92003619D01*
X218765333Y-91956000D01*
X218860571Y-91908381D01*
X234116714Y-93035381D02*
X234116714Y-92035381D01*
X234354809Y-92035381D01*
X234497667Y-92083000D01*
X234592905Y-92178238D01*
X234640524Y-92273476D01*
X234688143Y-92463952D01*
X234688143Y-92606810D01*
X234640524Y-92797286D01*
X234592905Y-92892524D01*
X234497667Y-92987762D01*
X234354809Y-93035381D01*
X234116714Y-93035381D01*
X235069095Y-92130619D02*
X235116714Y-92083000D01*
X235211952Y-92035381D01*
X235450048Y-92035381D01*
X235545286Y-92083000D01*
X235592905Y-92130619D01*
X235640524Y-92225857D01*
X235640524Y-92321095D01*
X235592905Y-92463952D01*
X235021476Y-93035381D01*
X235640524Y-93035381D01*
X236592905Y-93035381D02*
X236021476Y-93035381D01*
X236307190Y-93035381D02*
X236307190Y-92035381D01*
X236211952Y-92178238D01*
X236116714Y-92273476D01*
X236021476Y-92321095D01*
X251642714Y-92908381D02*
X251642714Y-91908381D01*
X251880809Y-91908381D01*
X252023667Y-91956000D01*
X252118905Y-92051238D01*
X252166524Y-92146476D01*
X252214143Y-92336952D01*
X252214143Y-92479810D01*
X252166524Y-92670286D01*
X252118905Y-92765524D01*
X252023667Y-92860762D01*
X251880809Y-92908381D01*
X251642714Y-92908381D01*
X252595095Y-92003619D02*
X252642714Y-91956000D01*
X252737952Y-91908381D01*
X252976048Y-91908381D01*
X253071286Y-91956000D01*
X253118905Y-92003619D01*
X253166524Y-92098857D01*
X253166524Y-92194095D01*
X253118905Y-92336952D01*
X252547476Y-92908381D01*
X253166524Y-92908381D01*
X253547476Y-92003619D02*
X253595095Y-91956000D01*
X253690333Y-91908381D01*
X253928429Y-91908381D01*
X254023667Y-91956000D01*
X254071286Y-92003619D01*
X254118905Y-92098857D01*
X254118905Y-92194095D01*
X254071286Y-92336952D01*
X253499857Y-92908381D01*
X254118905Y-92908381D01*
X152431762Y-115736619D02*
X152336524Y-115689000D01*
X152241286Y-115593762D01*
X152098429Y-115450905D01*
X152003190Y-115403286D01*
X151907952Y-115403286D01*
X151955571Y-115641381D02*
X151860333Y-115593762D01*
X151765095Y-115498524D01*
X151717476Y-115308048D01*
X151717476Y-114974714D01*
X151765095Y-114784238D01*
X151860333Y-114689000D01*
X151955571Y-114641381D01*
X152146048Y-114641381D01*
X152241286Y-114689000D01*
X152336524Y-114784238D01*
X152384143Y-114974714D01*
X152384143Y-115308048D01*
X152336524Y-115498524D01*
X152241286Y-115593762D01*
X152146048Y-115641381D01*
X151955571Y-115641381D01*
X152765095Y-114736619D02*
X152812714Y-114689000D01*
X152907952Y-114641381D01*
X153146048Y-114641381D01*
X153241286Y-114689000D01*
X153288905Y-114736619D01*
X153336524Y-114831857D01*
X153336524Y-114927095D01*
X153288905Y-115069952D01*
X152717476Y-115641381D01*
X153336524Y-115641381D01*
X161194762Y-115736619D02*
X161099524Y-115689000D01*
X161004286Y-115593762D01*
X160861429Y-115450905D01*
X160766190Y-115403286D01*
X160670952Y-115403286D01*
X160718571Y-115641381D02*
X160623333Y-115593762D01*
X160528095Y-115498524D01*
X160480476Y-115308048D01*
X160480476Y-114974714D01*
X160528095Y-114784238D01*
X160623333Y-114689000D01*
X160718571Y-114641381D01*
X160909048Y-114641381D01*
X161004286Y-114689000D01*
X161099524Y-114784238D01*
X161147143Y-114974714D01*
X161147143Y-115308048D01*
X161099524Y-115498524D01*
X161004286Y-115593762D01*
X160909048Y-115641381D01*
X160718571Y-115641381D01*
X162004286Y-114974714D02*
X162004286Y-115641381D01*
X161766190Y-114593762D02*
X161528095Y-115308048D01*
X162147143Y-115308048D01*
X169957762Y-115736619D02*
X169862524Y-115689000D01*
X169767286Y-115593762D01*
X169624429Y-115450905D01*
X169529190Y-115403286D01*
X169433952Y-115403286D01*
X169481571Y-115641381D02*
X169386333Y-115593762D01*
X169291095Y-115498524D01*
X169243476Y-115308048D01*
X169243476Y-114974714D01*
X169291095Y-114784238D01*
X169386333Y-114689000D01*
X169481571Y-114641381D01*
X169672048Y-114641381D01*
X169767286Y-114689000D01*
X169862524Y-114784238D01*
X169910143Y-114974714D01*
X169910143Y-115308048D01*
X169862524Y-115498524D01*
X169767286Y-115593762D01*
X169672048Y-115641381D01*
X169481571Y-115641381D01*
X170767286Y-114641381D02*
X170576809Y-114641381D01*
X170481571Y-114689000D01*
X170433952Y-114736619D01*
X170338714Y-114879476D01*
X170291095Y-115069952D01*
X170291095Y-115450905D01*
X170338714Y-115546143D01*
X170386333Y-115593762D01*
X170481571Y-115641381D01*
X170672048Y-115641381D01*
X170767286Y-115593762D01*
X170814905Y-115546143D01*
X170862524Y-115450905D01*
X170862524Y-115212810D01*
X170814905Y-115117571D01*
X170767286Y-115069952D01*
X170672048Y-115022333D01*
X170481571Y-115022333D01*
X170386333Y-115069952D01*
X170338714Y-115117571D01*
X170291095Y-115212810D01*
X178974762Y-115736619D02*
X178879524Y-115689000D01*
X178784286Y-115593762D01*
X178641429Y-115450905D01*
X178546190Y-115403286D01*
X178450952Y-115403286D01*
X178498571Y-115641381D02*
X178403333Y-115593762D01*
X178308095Y-115498524D01*
X178260476Y-115308048D01*
X178260476Y-114974714D01*
X178308095Y-114784238D01*
X178403333Y-114689000D01*
X178498571Y-114641381D01*
X178689048Y-114641381D01*
X178784286Y-114689000D01*
X178879524Y-114784238D01*
X178927143Y-114974714D01*
X178927143Y-115308048D01*
X178879524Y-115498524D01*
X178784286Y-115593762D01*
X178689048Y-115641381D01*
X178498571Y-115641381D01*
X179498571Y-115069952D02*
X179403333Y-115022333D01*
X179355714Y-114974714D01*
X179308095Y-114879476D01*
X179308095Y-114831857D01*
X179355714Y-114736619D01*
X179403333Y-114689000D01*
X179498571Y-114641381D01*
X179689048Y-114641381D01*
X179784286Y-114689000D01*
X179831905Y-114736619D01*
X179879524Y-114831857D01*
X179879524Y-114879476D01*
X179831905Y-114974714D01*
X179784286Y-115022333D01*
X179689048Y-115069952D01*
X179498571Y-115069952D01*
X179403333Y-115117571D01*
X179355714Y-115165190D01*
X179308095Y-115260429D01*
X179308095Y-115450905D01*
X179355714Y-115546143D01*
X179403333Y-115593762D01*
X179498571Y-115641381D01*
X179689048Y-115641381D01*
X179784286Y-115593762D01*
X179831905Y-115546143D01*
X179879524Y-115450905D01*
X179879524Y-115260429D01*
X179831905Y-115165190D01*
X179784286Y-115117571D01*
X179689048Y-115069952D01*
X151185714Y-97226381D02*
X151185714Y-96226381D01*
X151423809Y-96226381D01*
X151566667Y-96274000D01*
X151661905Y-96369238D01*
X151709524Y-96464476D01*
X151757143Y-96654952D01*
X151757143Y-96797810D01*
X151709524Y-96988286D01*
X151661905Y-97083524D01*
X151566667Y-97178762D01*
X151423809Y-97226381D01*
X151185714Y-97226381D01*
X152709524Y-97226381D02*
X152138095Y-97226381D01*
X152423809Y-97226381D02*
X152423809Y-96226381D01*
X152328571Y-96369238D01*
X152233333Y-96464476D01*
X152138095Y-96512095D01*
X153614286Y-96226381D02*
X153138095Y-96226381D01*
X153090476Y-96702571D01*
X153138095Y-96654952D01*
X153233333Y-96607333D01*
X153471429Y-96607333D01*
X153566667Y-96654952D01*
X153614286Y-96702571D01*
X153661905Y-96797810D01*
X153661905Y-97035905D01*
X153614286Y-97131143D01*
X153566667Y-97178762D01*
X153471429Y-97226381D01*
X153233333Y-97226381D01*
X153138095Y-97178762D01*
X153090476Y-97131143D01*
X160075714Y-97226381D02*
X160075714Y-96226381D01*
X160313809Y-96226381D01*
X160456667Y-96274000D01*
X160551905Y-96369238D01*
X160599524Y-96464476D01*
X160647143Y-96654952D01*
X160647143Y-96797810D01*
X160599524Y-96988286D01*
X160551905Y-97083524D01*
X160456667Y-97178762D01*
X160313809Y-97226381D01*
X160075714Y-97226381D01*
X161599524Y-97226381D02*
X161028095Y-97226381D01*
X161313809Y-97226381D02*
X161313809Y-96226381D01*
X161218571Y-96369238D01*
X161123333Y-96464476D01*
X161028095Y-96512095D01*
X162456667Y-96226381D02*
X162266190Y-96226381D01*
X162170952Y-96274000D01*
X162123333Y-96321619D01*
X162028095Y-96464476D01*
X161980476Y-96654952D01*
X161980476Y-97035905D01*
X162028095Y-97131143D01*
X162075714Y-97178762D01*
X162170952Y-97226381D01*
X162361429Y-97226381D01*
X162456667Y-97178762D01*
X162504286Y-97131143D01*
X162551905Y-97035905D01*
X162551905Y-96797810D01*
X162504286Y-96702571D01*
X162456667Y-96654952D01*
X162361429Y-96607333D01*
X162170952Y-96607333D01*
X162075714Y-96654952D01*
X162028095Y-96702571D01*
X161980476Y-96797810D01*
X168965714Y-97226381D02*
X168965714Y-96226381D01*
X169203809Y-96226381D01*
X169346667Y-96274000D01*
X169441905Y-96369238D01*
X169489524Y-96464476D01*
X169537143Y-96654952D01*
X169537143Y-96797810D01*
X169489524Y-96988286D01*
X169441905Y-97083524D01*
X169346667Y-97178762D01*
X169203809Y-97226381D01*
X168965714Y-97226381D01*
X170489524Y-97226381D02*
X169918095Y-97226381D01*
X170203809Y-97226381D02*
X170203809Y-96226381D01*
X170108571Y-96369238D01*
X170013333Y-96464476D01*
X169918095Y-96512095D01*
X170822857Y-96226381D02*
X171489524Y-96226381D01*
X171060952Y-97226381D01*
X177855714Y-97226381D02*
X177855714Y-96226381D01*
X178093809Y-96226381D01*
X178236667Y-96274000D01*
X178331905Y-96369238D01*
X178379524Y-96464476D01*
X178427143Y-96654952D01*
X178427143Y-96797810D01*
X178379524Y-96988286D01*
X178331905Y-97083524D01*
X178236667Y-97178762D01*
X178093809Y-97226381D01*
X177855714Y-97226381D01*
X179379524Y-97226381D02*
X178808095Y-97226381D01*
X179093809Y-97226381D02*
X179093809Y-96226381D01*
X178998571Y-96369238D01*
X178903333Y-96464476D01*
X178808095Y-96512095D01*
X179950952Y-96654952D02*
X179855714Y-96607333D01*
X179808095Y-96559714D01*
X179760476Y-96464476D01*
X179760476Y-96416857D01*
X179808095Y-96321619D01*
X179855714Y-96274000D01*
X179950952Y-96226381D01*
X180141429Y-96226381D01*
X180236667Y-96274000D01*
X180284286Y-96321619D01*
X180331905Y-96416857D01*
X180331905Y-96464476D01*
X180284286Y-96559714D01*
X180236667Y-96607333D01*
X180141429Y-96654952D01*
X179950952Y-96654952D01*
X179855714Y-96702571D01*
X179808095Y-96750190D01*
X179760476Y-96845429D01*
X179760476Y-97035905D01*
X179808095Y-97131143D01*
X179855714Y-97178762D01*
X179950952Y-97226381D01*
X180141429Y-97226381D01*
X180236667Y-97178762D01*
X180284286Y-97131143D01*
X180331905Y-97035905D01*
X180331905Y-96845429D01*
X180284286Y-96750190D01*
X180236667Y-96702571D01*
X180141429Y-96654952D01*
X116673334Y-78811381D02*
X116340000Y-78335190D01*
X116101905Y-78811381D02*
X116101905Y-77811381D01*
X116482858Y-77811381D01*
X116578096Y-77859000D01*
X116625715Y-77906619D01*
X116673334Y-78001857D01*
X116673334Y-78144714D01*
X116625715Y-78239952D01*
X116578096Y-78287571D01*
X116482858Y-78335190D01*
X116101905Y-78335190D01*
X117149524Y-78811381D02*
X117340000Y-78811381D01*
X117435239Y-78763762D01*
X117482858Y-78716143D01*
X117578096Y-78573286D01*
X117625715Y-78382810D01*
X117625715Y-78001857D01*
X117578096Y-77906619D01*
X117530477Y-77859000D01*
X117435239Y-77811381D01*
X117244762Y-77811381D01*
X117149524Y-77859000D01*
X117101905Y-77906619D01*
X117054286Y-78001857D01*
X117054286Y-78239952D01*
X117101905Y-78335190D01*
X117149524Y-78382810D01*
X117244762Y-78430429D01*
X117435239Y-78430429D01*
X117530477Y-78382810D01*
X117578096Y-78335190D01*
X117625715Y-78239952D01*
X111117143Y-78811381D02*
X110783809Y-78335190D01*
X110545714Y-78811381D02*
X110545714Y-77811381D01*
X110926667Y-77811381D01*
X111021905Y-77859000D01*
X111069524Y-77906619D01*
X111117143Y-78001857D01*
X111117143Y-78144714D01*
X111069524Y-78239952D01*
X111021905Y-78287571D01*
X110926667Y-78335190D01*
X110545714Y-78335190D01*
X112069524Y-78811381D02*
X111498095Y-78811381D01*
X111783809Y-78811381D02*
X111783809Y-77811381D01*
X111688571Y-77954238D01*
X111593333Y-78049476D01*
X111498095Y-78097095D01*
X113021905Y-78811381D02*
X112450476Y-78811381D01*
X112736190Y-78811381D02*
X112736190Y-77811381D01*
X112640952Y-77954238D01*
X112545714Y-78049476D01*
X112450476Y-78097095D01*
X146677143Y-78811381D02*
X146343809Y-78335190D01*
X146105714Y-78811381D02*
X146105714Y-77811381D01*
X146486667Y-77811381D01*
X146581905Y-77859000D01*
X146629524Y-77906619D01*
X146677143Y-78001857D01*
X146677143Y-78144714D01*
X146629524Y-78239952D01*
X146581905Y-78287571D01*
X146486667Y-78335190D01*
X146105714Y-78335190D01*
X147629524Y-78811381D02*
X147058095Y-78811381D01*
X147343809Y-78811381D02*
X147343809Y-77811381D01*
X147248571Y-77954238D01*
X147153333Y-78049476D01*
X147058095Y-78097095D01*
X147962857Y-77811381D02*
X148581905Y-77811381D01*
X148248571Y-78192333D01*
X148391429Y-78192333D01*
X148486667Y-78239952D01*
X148534286Y-78287571D01*
X148581905Y-78382810D01*
X148581905Y-78620905D01*
X148534286Y-78716143D01*
X148486667Y-78763762D01*
X148391429Y-78811381D01*
X148105714Y-78811381D01*
X148010476Y-78763762D01*
X147962857Y-78716143D01*
X141597143Y-78811381D02*
X141263809Y-78335190D01*
X141025714Y-78811381D02*
X141025714Y-77811381D01*
X141406667Y-77811381D01*
X141501905Y-77859000D01*
X141549524Y-77906619D01*
X141597143Y-78001857D01*
X141597143Y-78144714D01*
X141549524Y-78239952D01*
X141501905Y-78287571D01*
X141406667Y-78335190D01*
X141025714Y-78335190D01*
X142549524Y-78811381D02*
X141978095Y-78811381D01*
X142263809Y-78811381D02*
X142263809Y-77811381D01*
X142168571Y-77954238D01*
X142073333Y-78049476D01*
X141978095Y-78097095D01*
X143454286Y-77811381D02*
X142978095Y-77811381D01*
X142930476Y-78287571D01*
X142978095Y-78239952D01*
X143073333Y-78192333D01*
X143311429Y-78192333D01*
X143406667Y-78239952D01*
X143454286Y-78287571D01*
X143501905Y-78382810D01*
X143501905Y-78620905D01*
X143454286Y-78716143D01*
X143406667Y-78763762D01*
X143311429Y-78811381D01*
X143073333Y-78811381D01*
X142978095Y-78763762D01*
X142930476Y-78716143D01*
X210177143Y-78618381D02*
X209843809Y-78142190D01*
X209605714Y-78618381D02*
X209605714Y-77618381D01*
X209986667Y-77618381D01*
X210081905Y-77666000D01*
X210129524Y-77713619D01*
X210177143Y-77808857D01*
X210177143Y-77951714D01*
X210129524Y-78046952D01*
X210081905Y-78094571D01*
X209986667Y-78142190D01*
X209605714Y-78142190D01*
X211129524Y-78618381D02*
X210558095Y-78618381D01*
X210843809Y-78618381D02*
X210843809Y-77618381D01*
X210748571Y-77761238D01*
X210653333Y-77856476D01*
X210558095Y-77904095D01*
X211700952Y-78046952D02*
X211605714Y-77999333D01*
X211558095Y-77951714D01*
X211510476Y-77856476D01*
X211510476Y-77808857D01*
X211558095Y-77713619D01*
X211605714Y-77666000D01*
X211700952Y-77618381D01*
X211891429Y-77618381D01*
X211986667Y-77666000D01*
X212034286Y-77713619D01*
X212081905Y-77808857D01*
X212081905Y-77856476D01*
X212034286Y-77951714D01*
X211986667Y-77999333D01*
X211891429Y-78046952D01*
X211700952Y-78046952D01*
X211605714Y-78094571D01*
X211558095Y-78142190D01*
X211510476Y-78237429D01*
X211510476Y-78427905D01*
X211558095Y-78523143D01*
X211605714Y-78570762D01*
X211700952Y-78618381D01*
X211891429Y-78618381D01*
X211986667Y-78570762D01*
X212034286Y-78523143D01*
X212081905Y-78427905D01*
X212081905Y-78237429D01*
X212034286Y-78142190D01*
X211986667Y-78094571D01*
X211891429Y-78046952D01*
X227703143Y-78618381D02*
X227369809Y-78142190D01*
X227131714Y-78618381D02*
X227131714Y-77618381D01*
X227512667Y-77618381D01*
X227607905Y-77666000D01*
X227655524Y-77713619D01*
X227703143Y-77808857D01*
X227703143Y-77951714D01*
X227655524Y-78046952D01*
X227607905Y-78094571D01*
X227512667Y-78142190D01*
X227131714Y-78142190D01*
X228655524Y-78618381D02*
X228084095Y-78618381D01*
X228369809Y-78618381D02*
X228369809Y-77618381D01*
X228274571Y-77761238D01*
X228179333Y-77856476D01*
X228084095Y-77904095D01*
X229131714Y-78618381D02*
X229322190Y-78618381D01*
X229417429Y-78570762D01*
X229465048Y-78523143D01*
X229560286Y-78380286D01*
X229607905Y-78189810D01*
X229607905Y-77808857D01*
X229560286Y-77713619D01*
X229512667Y-77666000D01*
X229417429Y-77618381D01*
X229226952Y-77618381D01*
X229131714Y-77666000D01*
X229084095Y-77713619D01*
X229036476Y-77808857D01*
X229036476Y-78046952D01*
X229084095Y-78142190D01*
X229131714Y-78189810D01*
X229226952Y-78237429D01*
X229417429Y-78237429D01*
X229512667Y-78189810D01*
X229560286Y-78142190D01*
X229607905Y-78046952D01*
X245229143Y-78618381D02*
X244895809Y-78142190D01*
X244657714Y-78618381D02*
X244657714Y-77618381D01*
X245038667Y-77618381D01*
X245133905Y-77666000D01*
X245181524Y-77713619D01*
X245229143Y-77808857D01*
X245229143Y-77951714D01*
X245181524Y-78046952D01*
X245133905Y-78094571D01*
X245038667Y-78142190D01*
X244657714Y-78142190D01*
X245610095Y-77713619D02*
X245657714Y-77666000D01*
X245752952Y-77618381D01*
X245991048Y-77618381D01*
X246086286Y-77666000D01*
X246133905Y-77713619D01*
X246181524Y-77808857D01*
X246181524Y-77904095D01*
X246133905Y-78046952D01*
X245562476Y-78618381D01*
X246181524Y-78618381D01*
X246800571Y-77618381D02*
X246895810Y-77618381D01*
X246991048Y-77666000D01*
X247038667Y-77713619D01*
X247086286Y-77808857D01*
X247133905Y-77999333D01*
X247133905Y-78237429D01*
X247086286Y-78427905D01*
X247038667Y-78523143D01*
X246991048Y-78570762D01*
X246895810Y-78618381D01*
X246800571Y-78618381D01*
X246705333Y-78570762D01*
X246657714Y-78523143D01*
X246610095Y-78427905D01*
X246562476Y-78237429D01*
X246562476Y-77999333D01*
X246610095Y-77808857D01*
X246657714Y-77713619D01*
X246705333Y-77666000D01*
X246800571Y-77618381D01*
X151757143Y-78811381D02*
X151423809Y-78335190D01*
X151185714Y-78811381D02*
X151185714Y-77811381D01*
X151566667Y-77811381D01*
X151661905Y-77859000D01*
X151709524Y-77906619D01*
X151757143Y-78001857D01*
X151757143Y-78144714D01*
X151709524Y-78239952D01*
X151661905Y-78287571D01*
X151566667Y-78335190D01*
X151185714Y-78335190D01*
X152138095Y-77906619D02*
X152185714Y-77859000D01*
X152280952Y-77811381D01*
X152519048Y-77811381D01*
X152614286Y-77859000D01*
X152661905Y-77906619D01*
X152709524Y-78001857D01*
X152709524Y-78097095D01*
X152661905Y-78239952D01*
X152090476Y-78811381D01*
X152709524Y-78811381D01*
X153090476Y-77906619D02*
X153138095Y-77859000D01*
X153233333Y-77811381D01*
X153471429Y-77811381D01*
X153566667Y-77859000D01*
X153614286Y-77906619D01*
X153661905Y-78001857D01*
X153661905Y-78097095D01*
X153614286Y-78239952D01*
X153042857Y-78811381D01*
X153661905Y-78811381D01*
X165298381Y-87764857D02*
X164822190Y-88098191D01*
X165298381Y-88336286D02*
X164298381Y-88336286D01*
X164298381Y-87955333D01*
X164346000Y-87860095D01*
X164393619Y-87812476D01*
X164488857Y-87764857D01*
X164631714Y-87764857D01*
X164726952Y-87812476D01*
X164774571Y-87860095D01*
X164822190Y-87955333D01*
X164822190Y-88336286D01*
X164393619Y-87383905D02*
X164346000Y-87336286D01*
X164298381Y-87241048D01*
X164298381Y-87002952D01*
X164346000Y-86907714D01*
X164393619Y-86860095D01*
X164488857Y-86812476D01*
X164584095Y-86812476D01*
X164726952Y-86860095D01*
X165298381Y-87431524D01*
X165298381Y-86812476D01*
X164298381Y-86479143D02*
X164298381Y-85860095D01*
X164679333Y-86193429D01*
X164679333Y-86050571D01*
X164726952Y-85955333D01*
X164774571Y-85907714D01*
X164869810Y-85860095D01*
X165107905Y-85860095D01*
X165203143Y-85907714D01*
X165250762Y-85955333D01*
X165298381Y-86050571D01*
X165298381Y-86336286D01*
X165250762Y-86431524D01*
X165203143Y-86479143D01*
X174188381Y-87764857D02*
X173712190Y-88098191D01*
X174188381Y-88336286D02*
X173188381Y-88336286D01*
X173188381Y-87955333D01*
X173236000Y-87860095D01*
X173283619Y-87812476D01*
X173378857Y-87764857D01*
X173521714Y-87764857D01*
X173616952Y-87812476D01*
X173664571Y-87860095D01*
X173712190Y-87955333D01*
X173712190Y-88336286D01*
X173283619Y-87383905D02*
X173236000Y-87336286D01*
X173188381Y-87241048D01*
X173188381Y-87002952D01*
X173236000Y-86907714D01*
X173283619Y-86860095D01*
X173378857Y-86812476D01*
X173474095Y-86812476D01*
X173616952Y-86860095D01*
X174188381Y-87431524D01*
X174188381Y-86812476D01*
X173521714Y-85955333D02*
X174188381Y-85955333D01*
X173140762Y-86193429D02*
X173855048Y-86431524D01*
X173855048Y-85812476D01*
X121277143Y-78811381D02*
X120943809Y-78335190D01*
X120705714Y-78811381D02*
X120705714Y-77811381D01*
X121086667Y-77811381D01*
X121181905Y-77859000D01*
X121229524Y-77906619D01*
X121277143Y-78001857D01*
X121277143Y-78144714D01*
X121229524Y-78239952D01*
X121181905Y-78287571D01*
X121086667Y-78335190D01*
X120705714Y-78335190D01*
X122229524Y-78811381D02*
X121658095Y-78811381D01*
X121943809Y-78811381D02*
X121943809Y-77811381D01*
X121848571Y-77954238D01*
X121753333Y-78049476D01*
X121658095Y-78097095D01*
X122848571Y-77811381D02*
X122943810Y-77811381D01*
X123039048Y-77859000D01*
X123086667Y-77906619D01*
X123134286Y-78001857D01*
X123181905Y-78192333D01*
X123181905Y-78430429D01*
X123134286Y-78620905D01*
X123086667Y-78716143D01*
X123039048Y-78763762D01*
X122943810Y-78811381D01*
X122848571Y-78811381D01*
X122753333Y-78763762D01*
X122705714Y-78716143D01*
X122658095Y-78620905D01*
X122610476Y-78430429D01*
X122610476Y-78192333D01*
X122658095Y-78001857D01*
X122705714Y-77906619D01*
X122753333Y-77859000D01*
X122848571Y-77811381D01*
X126357143Y-78811381D02*
X126023809Y-78335190D01*
X125785714Y-78811381D02*
X125785714Y-77811381D01*
X126166667Y-77811381D01*
X126261905Y-77859000D01*
X126309524Y-77906619D01*
X126357143Y-78001857D01*
X126357143Y-78144714D01*
X126309524Y-78239952D01*
X126261905Y-78287571D01*
X126166667Y-78335190D01*
X125785714Y-78335190D01*
X127309524Y-78811381D02*
X126738095Y-78811381D01*
X127023809Y-78811381D02*
X127023809Y-77811381D01*
X126928571Y-77954238D01*
X126833333Y-78049476D01*
X126738095Y-78097095D01*
X127690476Y-77906619D02*
X127738095Y-77859000D01*
X127833333Y-77811381D01*
X128071429Y-77811381D01*
X128166667Y-77859000D01*
X128214286Y-77906619D01*
X128261905Y-78001857D01*
X128261905Y-78097095D01*
X128214286Y-78239952D01*
X127642857Y-78811381D01*
X128261905Y-78811381D01*
X131437143Y-78811381D02*
X131103809Y-78335190D01*
X130865714Y-78811381D02*
X130865714Y-77811381D01*
X131246667Y-77811381D01*
X131341905Y-77859000D01*
X131389524Y-77906619D01*
X131437143Y-78001857D01*
X131437143Y-78144714D01*
X131389524Y-78239952D01*
X131341905Y-78287571D01*
X131246667Y-78335190D01*
X130865714Y-78335190D01*
X132389524Y-78811381D02*
X131818095Y-78811381D01*
X132103809Y-78811381D02*
X132103809Y-77811381D01*
X132008571Y-77954238D01*
X131913333Y-78049476D01*
X131818095Y-78097095D01*
X133246667Y-78144714D02*
X133246667Y-78811381D01*
X133008571Y-77763762D02*
X132770476Y-78478048D01*
X133389524Y-78478048D01*
X183078381Y-87764857D02*
X182602190Y-88098191D01*
X183078381Y-88336286D02*
X182078381Y-88336286D01*
X182078381Y-87955333D01*
X182126000Y-87860095D01*
X182173619Y-87812476D01*
X182268857Y-87764857D01*
X182411714Y-87764857D01*
X182506952Y-87812476D01*
X182554571Y-87860095D01*
X182602190Y-87955333D01*
X182602190Y-88336286D01*
X182173619Y-87383905D02*
X182126000Y-87336286D01*
X182078381Y-87241048D01*
X182078381Y-87002952D01*
X182126000Y-86907714D01*
X182173619Y-86860095D01*
X182268857Y-86812476D01*
X182364095Y-86812476D01*
X182506952Y-86860095D01*
X183078381Y-87431524D01*
X183078381Y-86812476D01*
X182078381Y-85907714D02*
X182078381Y-86383905D01*
X182554571Y-86431524D01*
X182506952Y-86383905D01*
X182459333Y-86288667D01*
X182459333Y-86050571D01*
X182506952Y-85955333D01*
X182554571Y-85907714D01*
X182649810Y-85860095D01*
X182887905Y-85860095D01*
X182983143Y-85907714D01*
X183030762Y-85955333D01*
X183078381Y-86050571D01*
X183078381Y-86288667D01*
X183030762Y-86383905D01*
X182983143Y-86431524D01*
X145097667Y-69150381D02*
X144764333Y-68674190D01*
X144526238Y-69150381D02*
X144526238Y-68150381D01*
X144907191Y-68150381D01*
X145002429Y-68198000D01*
X145050048Y-68245619D01*
X145097667Y-68340857D01*
X145097667Y-68483714D01*
X145050048Y-68578952D01*
X145002429Y-68626571D01*
X144907191Y-68674190D01*
X144526238Y-68674190D01*
X145526238Y-68626571D02*
X145859572Y-68626571D01*
X146002429Y-69150381D02*
X145526238Y-69150381D01*
X145526238Y-68150381D01*
X146002429Y-68150381D01*
X146764334Y-68626571D02*
X146431000Y-68626571D01*
X146431000Y-69150381D02*
X146431000Y-68150381D01*
X146907191Y-68150381D01*
X147431000Y-68150381D02*
X147431000Y-68388476D01*
X147192905Y-68293238D02*
X147431000Y-68388476D01*
X147669096Y-68293238D01*
X147288143Y-68578952D02*
X147431000Y-68388476D01*
X147573858Y-68578952D01*
X148192905Y-68150381D02*
X148192905Y-68388476D01*
X147954810Y-68293238D02*
X148192905Y-68388476D01*
X148431001Y-68293238D01*
X148050048Y-68578952D02*
X148192905Y-68388476D01*
X148335763Y-68578952D01*
M02*
